<?xml version="1.0" encoding="UTF-8" standalone="no"?>
<!-- Created with Inkscape (http://www.inkscape.org/) -->

<svg
   xmlns:dc="http://purl.org/dc/elements/1.1/"
   xmlns:cc="http://creativecommons.org/ns#"
   xmlns:rdf="http://www.w3.org/1999/02/22-rdf-syntax-ns#"
   xmlns:svg="http://www.w3.org/2000/svg"
   xmlns="http://www.w3.org/2000/svg"
   xmlns:sodipodi="http://sodipodi.sourceforge.net/DTD/sodipodi-0.dtd"
   xmlns:inkscape="http://www.inkscape.org/namespaces/inkscape"
   width="210mm"
   height="297mm"
   viewBox="0 0 210 297"
   version="1.1"
   id="svg8"
   inkscape:version="0.92.4 (5da689c313, 2019-01-14)"
   sodipodi:docname="desenhando.svg"
   inkscape:export-filename="D:\Claudio Júnior\Documentos\NetBeansProjects\SISGRAFEx\novoCabeçalho.png"
   inkscape:export-xdpi="147"
   inkscape:export-ydpi="147">
  <defs
     id="defs2">
    <clipPath
       clipPathUnits="userSpaceOnUse"
       id="clipPath833">
      <path
         style="fill:none;stroke:#000000;stroke-width:0.26458332px;stroke-linecap:butt;stroke-linejoin:miter;stroke-opacity:1"
         d="m 107.81771,70.119788 -14.83557,5.291669 -5.38616,13.796132 3.590777,18.331841 23.056543,10.20536 15.49702,-5.76414 c 0,0 9.5439,-16.252971 9.5439,-16.725443 0,-0.472469 -3.77976,-14.646579 -3.87425,-15.119046 -0.0945,-0.472471 -17.57589,-11.622767 -17.57589,-11.622767 z"
         id="path835"
         inkscape:connector-curvature="0" />
    </clipPath>
  </defs>
  <sodipodi:namedview
     id="base"
     pagecolor="#ffffff"
     bordercolor="#666666"
     borderopacity="1.0"
     inkscape:pageopacity="0.0"
     inkscape:pageshadow="2"
     inkscape:zoom="1.0608532"
     inkscape:cx="484.41011"
     inkscape:cy="835.11829"
     inkscape:document-units="mm"
     inkscape:current-layer="layer1"
     showgrid="false"
     inkscape:window-width="1920"
     inkscape:window-height="1027"
     inkscape:window-x="-8"
     inkscape:window-y="-8"
     inkscape:window-maximized="1" />
  <metadata
     id="metadata5">
    <rdf:RDF>
      <cc:Work
         rdf:about="">
        <dc:format>image/svg+xml</dc:format>
        <dc:type
           rdf:resource="http://purl.org/dc/dcmitype/StillImage" />
        <dc:title></dc:title>
      </cc:Work>
    </rdf:RDF>
  </metadata>
  <g
     inkscape:label="Camada 1"
     inkscape:groupmode="layer"
     id="layer1">
    <g
       id="g179"
       inkscape:export-filename="C:\Users\claud\Desktop\g179.png"
       inkscape:export-xdpi="500"
       inkscape:export-ydpi="500"
       transform="translate(4.7749911,62.221171)">
      <g
         inkscape:export-filename="C:\Users\claud\Documents\NetBeansProjects\BalaDePrata\src\icones\bala133x191.png"
         inkscape:export-ydpi="79.662651"
         inkscape:export-xdpi="79.662651"
         transform="matrix(0.11207708,0,0,0.11207708,-26.82042,-2.9042651)"
         id="Layer1000">
        <path
           d="m 278.6203,134.083 h 288.0935 v 40.6183 H 278.6203 Z"
           style="fill:#009ee0;fill-rule:evenodd"
           id="path837"
           inkscape:connector-curvature="0" />
        <path
           d="m 278.6203,85.2603 h 287.5359 v 45.4579 H 278.6203 Z"
           style="fill:#e6312c;fill-rule:evenodd"
           id="path839"
           inkscape:connector-curvature="0" />
        <path
           d="M 278.853,368.6597 V 368.4193 177.345 h 284.1836 v 191.0743 0.2404 l -0.6979,14.1801 -2.0951,13.9403 -3.7237,13.4592 -4.6548,12.9785 -6.0513,12.0176 -7.2152,11.7767 -8.1462,10.575 -9.0771,10.0946 -10.2412,9.1334 -10.939,7.9311 -11.637,6.9704 -12.5684,6.0086 -13.034,4.8068 -13.499,3.3648 -14.198,2.1628 -14.4297,0.7214 -14.4306,-0.7214 -14.1973,-2.1628 -13.4995,-3.3648 -13.034,-4.8068 -12.5679,-6.0086 -11.6376,-6.9704 -10.9391,-7.9311 -10.0081,-9.1334 -9.3102,-10.0946 -8.1455,-10.575 -6.9828,-11.7767 -6.0512,-12.0176 -4.8878,-12.9785 -3.4914,-13.4592 -2.0943,-13.9403 z"
           style="fill:#e6312c;fill-rule:evenodd"
           id="path841"
           inkscape:connector-curvature="0" />
        <path
           d="m 319.351,362.8914 v -0.2405 -143.9663 h 203.1878 v 143.9663 0.2405 l -0.4654,10.8154 -1.6294,10.5755 -2.5599,10.094 -3.2584,9.8543 -4.4224,9.1334 -5.1202,8.8928 -5.8188,8.1716 -6.5167,7.4507 -7.2152,6.73 -7.9138,6.2484 -8.3785,5.2879 -8.8441,4.3258 -9.3102,3.6059 -9.7751,2.6431 -10.0087,1.6827 -10.4735,0.481 -10.4736,-0.481 -10.0081,-1.6827 -9.7751,-2.6431 -9.3102,-3.6059 -8.8441,-4.3258 -8.3792,-5.2879 -7.6806,-6.2484 -7.2147,-6.73 -6.7498,-7.4507 -5.8188,-8.1716 -4.8878,-8.8928 -4.4217,-9.1334 -3.259,-9.8543 -2.5598,-10.094 -1.6294,-10.5755 z"
           style="fill:#fecb02;fill-rule:evenodd"
           id="path843"
           inkscape:connector-curvature="0" />
        <path
           d="m 325.6352,361.6896 v -0.2404 -136.0354 h 190.3869 v 136.0354 0.2404 l -0.4654,10.3352 -1.3966,9.8541 -2.3274,9.6137 -3.2583,9.3733 -4.1899,8.6524 -4.6548,8.1715 -5.5857,7.9317 -6.0518,6.9699 -6.7491,6.4894 -7.4484,5.7681 -7.9132,5.0473 -8.3785,4.0862 -8.6123,3.3647 -9.0771,2.6438 -9.542,1.4421 -9.7757,0.4803 -9.7756,-0.4803 -9.3097,-1.4421 -9.0771,-2.6438 -8.8441,-3.3647 -8.1462,-4.0862 -7.9136,-5.0473 -7.2152,-5.7681 -6.7498,-6.4894 -6.2837,-6.9699 -5.3534,-7.9317 -4.8878,-8.1715 -3.9568,-8.6524 -3.2583,-9.3733 -2.3274,-9.6137 -1.3964,-9.8541 z"
           style="fill:#ffffff;fill-rule:evenodd"
           id="path845"
           inkscape:connector-curvature="0" />
        <path
           d="M 269.7761,145.8597 V 80.0053 h 302.3378 v 94.4558 184.3448 0.2397 l -0.2325,7.9317 -0.4654,7.9312 -1.164,7.9317 -1.1634,7.6911 -1.8625,7.4508 -1.8619,7.4507 -2.5599,7.2103 -2.5605,7.2103 -3.0258,6.9699 -3.4909,6.7299 -3.4912,6.4889 -3.957,6.249 -4.1892,6.249 -4.6549,5.7681 -4.6548,5.7687 -5.1209,5.5277 -5.1203,5.0473 -5.5857,5.0472 -5.8187,4.5665 -5.8187,4.3265 -6.0514,4.0855 -6.5167,3.8455 -6.5172,3.3648 -6.5168,3.1248 -6.9821,2.8842 -6.9828,2.4035 -7.2152,2.163 -7.2147,1.6827 -7.4482,1.4414 -7.6808,0.962 -7.6806,0.4803 -7.6807,0.2404 -7.6801,-0.2404 -7.6808,-0.4803 -7.6806,-0.962 -7.4484,-1.4414 -7.2151,-1.6827 -7.2152,-2.163 -6.9822,-2.4035 -6.7497,-2.8842 -6.7498,-3.1248 -6.5167,-3.3648 -6.2842,-3.8455 -6.2842,-4.0855 -5.8183,-4.3265 -5.8188,-4.5665 -5.3532,-5.0472 -5.3534,-5.0473 -4.8878,-5.5277 -4.8873,-5.7687 -4.4222,-5.7681 -4.1894,-6.249 -3.957,-6.249 -3.7237,-6.4889 -3.2584,-6.7299 -3.0258,-6.9699 -2.793,-7.2103 -2.3274,-7.2103 -2.0948,-7.4507 -1.6289,-7.4508 -1.3971,-7.6911 -0.931,-7.9317 -0.4654,-7.9312 -0.2325,-7.9317 v -0.2397 z m 9.0771,6.7294 V 89.619 h 284.1836 v 90.3696 176.1733 0.2399 l -0.698,15.3824 -2.095,14.6611 -3.7237,14.4206 -4.6548,13.6996 -6.0518,12.9785 -6.9822,12.4981 -8.3787,11.2962 -9.0777,10.8155 -10.2405,9.6137 -10.9391,8.6525 -11.6376,7.4507 -12.3355,6.249 -13.0333,5.0473 -13.7326,3.6051 -14.1975,2.4034 -14.4303,0.7214 -14.4299,-0.7214 -14.198,-2.4034 -13.4988,-3.6051 -13.034,-5.0473 -12.3355,-6.249 -11.87,-7.4507 -10.9391,-8.6525 -10.0087,-9.6137 -9.0766,-10.8155 -8.3792,-11.2962 -6.9822,-12.4981 -6.0511,-12.9785 -4.6555,-13.6996 -3.7237,-14.4206 -2.0951,-14.6611 -0.6979,-15.3824 v -0.2399 z"
           style="fill:#fecb02;fill-rule:evenodd"
           id="path847"
           inkscape:connector-curvature="0" />
        <path
           d="m 275.5945,127.353 h 289.3044 v 6.7293 H 275.5945 Z"
           style="fill:#fecb02;fill-rule:evenodd"
           id="path849"
           inkscape:connector-curvature="0" />
        <path
           d="m 279.0859,171.3361 h 286.2784 v 6.7292 H 279.0859 Z"
           style="fill:#fecb02;fill-rule:evenodd"
           id="path851"
           inkscape:connector-curvature="0" />
        <path
           d="m 349.841,304.0067 19.5507,2.163 56.0922,74.0265 v 23.3135 z"
           style="fill:#e6312c;fill-rule:evenodd"
           id="path853"
           inkscape:connector-curvature="0" />
        <path
           d="m 496.9368,299.9209 -18.3872,1.2017 -48.6435,78.5931 v 24.2747 z"
           style="fill:#e6312c;fill-rule:evenodd"
           id="path855"
           inkscape:connector-curvature="0" />
        <path
           d="m 337.9707,294.8737 -7.2152,0.481 5.1204,6.7292 5.3532,6.9699 5.3534,7.2108 5.3532,7.2103 5.3534,7.4508 5.5857,7.4507 5.5858,7.4502 5.5857,7.4507 5.5864,7.4507 5.5858,7.4509 5.5857,7.4506 5.3532,7.4507 5.5858,7.4509 5.3534,7.2103 5.3532,6.9704 5.3534,6.9697 2.5597,2.163 2.3281,1.4421 2.5597,0.7209 2.5604,0.2404 2.5599,-0.2404 2.5605,-0.7209 2.5604,-1.4421 2.5599,-2.163 73.0825,-116.3268 -5.8188,-0.7215 -70.7546,110.5589 -1.8618,1.6825 -1.862,1.2017 -1.8625,0.7209 h -1.6289 l -1.862,-0.2404 -1.8617,-0.9613 -1.6295,-1.2017 -1.862,-1.9226 z"
           style="fill:#e6312c;fill-rule:evenodd"
           id="path857"
           inkscape:connector-curvature="0" />
        <path
           d="m 407.3293,284.5389 25.835,-0.2404 14.6629,21.6308 v 20.1892 h -40.4979 z"
           style="fill:#e6312c;fill-rule:evenodd"
           id="path859"
           inkscape:connector-curvature="0" />
        <path
           d="m 399.6485,329.4836 h 54.2304 v 6.4896 h -54.2304 z"
           style="fill:#e6312c;fill-rule:evenodd"
           id="path861"
           inkscape:connector-curvature="0" />
        <path
           d="m 375.9084,291.5086 h 6.0512 v 18.7471 h -6.0512 z"
           style="fill:#e6312c;fill-rule:evenodd"
           id="path863"
           inkscape:connector-curvature="0" />
        <path
           d="m 385.451,294.8738 h 9.5427 v 12.7386 h -9.5427 z"
           style="fill:#e6312c;fill-rule:evenodd"
           id="path865"
           inkscape:connector-curvature="0" />
        <path
           d="m 398.4852,291.5086 h 4.8878 v 18.7471 h -4.8878 z"
           style="fill:#e6312c;fill-rule:evenodd"
           id="path867"
           inkscape:connector-curvature="0" />
        <path
           d="m 411.2859,281.8951 h 20.0163"
           style="fill:#e6312c;fill-rule:evenodd"
           id="path869"
           inkscape:connector-curvature="0" />
        <path
           d="m 410.8205,281.8951 h 18.6199 v -0.9612 -0.962 l -0.2325,-0.9611 v -0.7209 l -1.6295,-1.4421 -1.862,-1.4421 -1.8617,-1.2017 -2.0951,-0.7209 h -2.3273 l -2.5605,0.7209 -2.7929,1.4421 -3.2584,2.6438 z"
           style="fill:#e6312c;fill-rule:evenodd"
           id="path871"
           inkscape:connector-curvature="0" />
        <path
           d="m 295.8678,143.0155 c -0.5267,0.7307 -1.1176,1.2896 -1.7729,1.6766 -0.6552,0.3869 -1.3321,0.5804 -2.0307,0.5804 -1.9125,0 -3.3763,-0.8308 -4.3914,-2.493 -1.0149,-1.6622 -1.5231,-4.0626 -1.5231,-7.201 v -11.5857 c 0,-3.2379 0.4728,-5.6958 1.4179,-7.3722 0.9459,-1.6771 2.3262,-2.5154 4.1419,-2.5154 0.7843,0 1.4935,0.212 2.1276,0.6343 0.6336,0.4229 1.1763,1.0423 1.6277,1.8594 v -1.9349 h 2.7075 v 8.8133 h -2.9332 l -0.032,-0.8383 c -0.0538,-1.4619 -0.2851,-2.5475 -0.6931,-3.2564 -0.4086,-0.7097 -1.0046,-1.0645 -1.7889,-1.0645 -0.9026,0 -1.569,0.3839 -1.9986,1.1503 -0.4295,0.7666 -0.6442,1.9664 -0.6442,3.6003 v 13.2621 c 0,1.6338 0.2091,2.8194 0.6282,3.5575 0.419,0.738 1.0905,1.1065 2.0146,1.1065 0.8809,0 1.5417,-0.39 1.9824,-1.1714 0.4402,-0.7808 0.6608,-1.959 0.6608,-3.5352 v -2.2144 h -1.9824 v -3.9983 h 5.1896 v 14.5739 h -1.8534 z"
           style="fill:#fdfcfa;fill-rule:evenodd"
           id="path873"
           inkscape:connector-curvature="0" />
        <path
           d="m 291.7097,114.4147 c -1.7116,0 -2.9784,0.7713 -3.8729,2.3575 -0.9142,1.6215 -1.3778,4.0509 -1.3778,7.2208 v 11.5857 c 0,3.0654 0.4969,5.4343 1.4773,7.0396 0.9645,1.5776 2.3144,2.3447 4.1282,2.3447 0.6385,0 1.269,-0.1805 1.873,-0.537 0.6151,-0.3629 1.1802,-0.8983 1.6796,-1.5913 l 0.2924,-0.4062 0.9995,1.9114 h 1.357 v -13.955 h -4.5713 v 3.3802 h 1.9823 v 2.5226 c 0,1.6455 -0.2287,2.8523 -0.7004,3.688 -0.4976,0.8816 -1.2548,1.3284 -2.2513,1.3284 -1.0398,0 -1.8075,-0.4246 -2.2836,-1.2629 -0.45,-0.7931 -0.6688,-2.0065 -0.6688,-3.7102 v -13.2622 c 0,-1.7035 0.2238,-2.9307 0.6844,-3.7516 0.4865,-0.8679 1.2499,-1.3079 2.268,-1.3079 0.8987,0 1.5912,0.4104 2.0567,1.2189 0.4377,0.7603 0.6774,1.8718 0.7336,3.3994 l 0.0211,0.5402 h 2.3268 v -8.1943 h -2.0894 v 2.8238 l -0.5798,-1.0491 c -0.4248,-0.7691 -0.9391,-1.3582 -1.5287,-1.7512 -0.5793,-0.3864 -1.2377,-0.5823 -1.9559,-0.5823 z m 0.3548,31.1665 c -2.019,0 -3.5853,-0.8882 -4.656,-2.6408 -1.0405,-1.7036 -1.5677,-4.1806 -1.5677,-7.3617 V 123.993 c 0,-3.2775 0.4903,-5.8088 1.4577,-7.5243 0.9995,-1.7728 2.4837,-2.6722 4.4112,-2.6722 0.8425,0 1.6159,0.2311 2.299,0.6862 0.4191,0.2793 0.8029,0.6415 1.1472,1.0829 v -1.2103 h 3.3258 v 9.4307 h -3.5396 l -0.044,-1.1356 c -0.0518,-1.4045 -0.2712,-2.4523 -0.6522,-3.1136 -0.3517,-0.6121 -0.8493,-0.9095 -1.5206,-0.9095 -0.7894,0 -1.3543,0.3246 -1.729,0.9922 -0.4018,0.7159 -0.6052,1.8768 -0.6052,3.4493 v 13.2622 c 0,1.5719 0.1985,2.7174 0.5886,3.4043 0.3627,0.6397 0.9339,0.9508 1.7456,0.9508 0.7679,0 1.3284,-0.3321 1.713,-1.0146 0.4123,-0.73 0.6205,-1.8686 0.6205,-3.3838 v -1.9046 h -1.9823 v -4.6164 h 5.8075 v 15.1914 h -2.3489 l -0.717,-1.3711 c -0.4749,0.5768 -0.9997,1.0366 -1.5659,1.3711 -0.701,0.4136 -1.4367,0.6231 -2.1877,0.6231 z"
           style="fill:#1b1918;fill-rule:evenodd"
           id="path875"
           inkscape:connector-curvature="0" />
        <path
           d="m 306.0048,127.0882 h 2.208 c 0.9562,0 1.6517,-0.2436 2.087,-0.7307 0.4351,-0.4871 0.6527,-1.2753 0.6527,-2.3645 v -2.5795 c 0,-1.1029 -0.2096,-1.8662 -0.6287,-2.2891 -0.4185,-0.4222 -1.214,-0.6343 -2.3849,-0.6343 h -1.9341 z m -5.7533,17.5608 v -3.869 h 1.8532 v -22.2249 h -1.8532 v -3.8907 h 7.9613 c 2.4171,0 4.1096,0.5087 5.0764,1.5262 0.9674,1.0176 1.4509,2.7583 1.4509,5.2229 v 1.9774 c 0,1.8199 -0.285,3.1564 -0.8545,4.0089 -0.5693,0.853 -1.5472,1.4081 -2.9331,1.6659 1.4181,0.2435 2.4041,0.7133 2.9573,1.4083 0.5532,0.6947 0.8303,1.7945 0.8303,3.299 v 7.007 h 1.8532 v 3.869 h -5.6408 v -10.6608 c 0,-1.2326 -0.204,-2.0672 -0.6126,-2.5042 -0.4079,-0.437 -1.198,-0.6559 -2.3687,-0.6559 h -1.9664 v 9.9519 h 1.7407 v 3.869 z"
           style="fill:#fdfcfa;fill-rule:evenodd"
           id="path877"
           inkscape:connector-curvature="0" />
        <path
           d="m 306.3139,126.7791 h 1.8989 c 0.8599,0 1.4849,-0.2113 1.8564,-0.6275 0.3808,-0.4265 0.5742,-1.1528 0.5742,-2.1586 v -2.5795 c 0,-1.0132 -0.1817,-1.7104 -0.539,-2.0716 -0.3568,-0.3597 -1.0855,-0.5427 -2.1655,-0.5427 h -1.625 z m 1.8989,0.6182 h -2.5171 v -9.2163 h 2.2432 c 1.2685,0 2.1203,0.2375 2.6045,0.7258 0.4832,0.4877 0.7182,1.3074 0.7182,2.5067 v 2.5795 c 0,1.1782 -0.2392,2.019 -0.7312,2.5704 -0.4947,0.5532 -1.2741,0.8339 -2.3176,0.8339 z m 3.0488,16.9426 h 5.0226 v -3.2508 h -1.8532 v -7.3161 c 0,-1.4255 -0.2566,-2.4707 -0.7628,-3.1068 -0.5026,-0.6307 -1.4335,-1.067 -2.7683,-1.2963 l -1.7018,-0.2925 1.6982,-0.3158 c 1.2944,-0.2406 2.2136,-0.7566 2.7323,-1.5337 0.5322,-0.7968 0.8024,-2.0875 0.8024,-3.837 v -1.9774 c 0,-2.3707 -0.4593,-4.0564 -1.3656,-5.0103 -0.9019,-0.9489 -2.5345,-1.4297 -4.8526,-1.4297 h -7.6522 v 3.2725 h 1.8532 v 22.8431 h -1.8532 v 3.2508 h 6.8758 v -3.2508 h -1.7407 V 130.519 h 2.2755 c 1.2721,0 2.1208,0.2467 2.5944,0.7542 0.4686,0.5008 0.696,1.389 0.696,2.715 z m 5.6408,0.6182 h -6.259 v -10.9699 c 0,-1.4274 -0.2874,-2.035 -0.5292,-2.2934 -0.3455,-0.3698 -1.0668,-0.5576 -2.143,-0.5576 h -1.6573 v 9.3337 h 1.7407 v 4.4872 h -8.1122 v -4.4872 h 1.8532 v -21.6068 h -1.8532 v -4.5088 h 8.2704 c 2.4937,0 4.2777,0.5458 5.3001,1.6221 1.0193,1.0724 1.5363,2.9016 1.5363,5.4361 v 1.9774 c 0,1.8996 -0.2969,3.2676 -0.9063,4.1808 -0.4358,0.6515 -1.0912,1.1454 -1.9564,1.4742 0.8796,0.2863 1.5385,0.6998 1.965,1.2351 0.5959,0.7481 0.8977,1.9232 0.8977,3.492 v 6.6979 h 1.8532 z"
           style="fill:#1b1918;fill-rule:evenodd"
           id="path879"
           inkscape:connector-curvature="0" />
        <path
           d="m 323.3942,132.4186 h 4.1899 l -2.0467,-12.2088 z m 2.8688,-28.4368 h 3.465 l -4.3835,7.6949 h -1.9824 z m -9.1865,40.6672 v -3.869 h 1.4348 l 4.4156,-22.2249 h -1.9503 v -3.8907 h 9.4443 v 3.8907 h -1.9503 l 4.3512,22.2249 h 1.3218 v 3.869 h -7.0912 v -3.869 h 1.9826 l -0.8865,-5.0294 h -5.3508 l -0.9346,5.0294 h 1.9175 v 3.869 z"
           style="fill:#fdfcfa;fill-rule:evenodd"
           id="path881"
           inkscape:connector-curvature="0" />
        <path
           d="m 323.8086,111.3675 h 1.3563 l 4.0311,-7.0768 h -2.7193 z m 1.7155,0.6182 h -2.6086 l 3.1341,-8.313 h 4.2102 z m -1.7617,20.1237 h 3.4567 l -1.6882,-10.0723 z m 4.1874,0.6182 h -4.9237 l 2.5183,-14.3451 z m -0.5879,11.6123 h 6.4727 v -3.2505 h -1.2672 l -4.4716,-22.8435 h 2.0163 v -3.2726 h -8.8261 v 3.2726 h 2.0176 l -4.5386,22.8435 h -1.379 v 3.2505 h 6.0858 v -3.2505 h -1.9806 l 1.0497,-5.6481 h 5.8669 l 0.9953,5.6481 h -2.0412 z m 7.0909,0.618 h -7.7091 v -4.4865 h 1.9231 l -0.7776,-4.4119 h -4.8348 l -0.819,4.4119 h 1.8546 v 4.4865 h -7.3222 v -4.4865 h 1.4898 l 4.2931,-21.6073 h -1.8829 v -4.509 h 10.0625 v 4.509 h -1.8842 l 4.2307,21.6073 h 1.376 z"
           style="fill:#1b1918;fill-rule:evenodd"
           id="path883"
           inkscape:connector-curvature="0" />
        <path
           d="M 335.3039,144.6492 V 140.78 h 1.8532 v -22.2249 h -1.8532 v -3.8907 h 14.6659 v 8.5975 h -3.207 v -4.7716 h -5.7056 v 8.1462 h 4.6097 v 4.3209 h -4.6097 v 9.8226 h 1.8698 v 3.8692 z"
           style="fill:#fdfcfa;fill-rule:evenodd"
           id="path885"
           inkscape:connector-curvature="0" />
        <path
           d="m 335.613,144.3401 h 7.0051 v -3.251 h -1.87 v -10.4408 h 4.6097 v -3.7027 h -4.6097 v -8.7644 h 6.3238 v 4.7716 h 2.589 v -7.9793 H 335.613 v 3.2725 h 1.8532 v 22.8431 h -1.8532 z m 7.6231,0.6182 h -8.2413 v -4.4872 h 1.8532 v -21.6069 h -1.8532 v -4.5088 h 15.2841 v 9.2156 h -3.8252 v -4.7716 h -5.0874 v 7.528 h 4.6095 v 4.9391 h -4.6095 v 9.2046 h 1.8698 z"
           style="fill:#1b1918;fill-rule:evenodd"
           id="path887"
           inkscape:connector-curvature="0" />
        <path
           d="M 351.1785,144.6492 V 140.78 h 1.8532 v -22.2249 h -1.8532 v -3.8907 h 7.6231 v 3.8907 h -1.8698 V 140.78 h 1.8698 v 3.8692 z"
           style="fill:#fdfcfa;fill-rule:evenodd"
           id="path889"
           inkscape:connector-curvature="0" />
        <path
           d="m 351.4875,144.3401 h 7.005 v -3.251 h -1.8698 V 118.246 h 1.8698 v -3.2725 h -7.005 v 3.2725 h 1.8533 v 22.8431 h -1.8533 z m 7.6232,0.6182 h -8.2413 v -4.4872 h 1.8532 v -21.6069 h -1.8532 v -4.5088 h 8.2413 v 4.5088 h -1.87 v 21.6069 h 1.87 z"
           style="fill:#1b1918;fill-rule:evenodd"
           id="path891"
           inkscape:connector-curvature="0" />
        <path
           d="m 373.1607,134.7401 v 1.2469 c 0,3.0234 -0.5315,5.3273 -1.5955,6.9104 -1.0638,1.5838 -2.6105,2.3751 -4.641,2.3751 -2.0628,0 -3.6262,-0.8204 -4.6902,-2.4611 -1.0631,-1.6405 -1.5954,-4.052 -1.5954,-7.233 v -11.0052 c 0,-3.4673 0.4648,-6.079 1.3939,-7.8347 0.9292,-1.755 2.3183,-2.6328 4.1659,-2.6328 0.7845,0 1.4966,0.1825 2.1358,0.5478 0.6391,0.3654 1.1788,0.9136 1.6195,1.6443 v -1.6338 h 2.8362 v 9.0276 h -3.0617 l -0.0323,-0.7948 c -0.0753,-1.5331 -0.317,-2.6798 -0.7251,-3.4389 -0.4086,-0.7598 -0.9939,-1.1393 -1.7568,-1.1393 -0.9024,0 -1.5688,0.3832 -1.9985,1.1498 -0.4296,0.7665 -0.6448,1.967 -0.6448,3.6001 v 13.2195 c 0,1.6331 0.212,2.8263 0.6368,3.5785 0.4247,0.7523 1.0928,1.1288 2.0065,1.1288 0.8809,0 1.5418,-0.3975 1.9825,-1.1931 0.4402,-0.7955 0.6608,-1.9811 0.6608,-3.5575 v -1.5046 z"
           style="fill:#fdfcfa;fill-rule:evenodd"
           id="path893"
           inkscape:connector-curvature="0" />
        <path
           d="m 366.1985,114.4147 c -1.7401,0 -3.0135,0.8072 -3.8925,2.4682 -0.9013,1.7024 -1.3582,4.2894 -1.3582,7.6906 v 11.0052 c 0,3.1057 0.5199,5.4825 1.5455,7.0643 1.0125,1.5616 2.4615,2.32 4.4303,2.32 1.9393,0 3.3733,-0.7319 4.3853,-2.2383 1.0237,-1.5238 1.543,-3.7906 1.543,-6.7381 v -0.9376 h -2.686 v 1.1954 c 0,1.645 -0.2287,2.8578 -0.699,3.7078 -0.4971,0.897 -1.255,1.3519 -2.2527,1.3519 -1.0286,0 -1.7945,-0.4326 -2.2761,-1.2856 -0.4549,-0.8063 -0.6762,-2.0266 -0.6762,-3.7308 v -13.2189 c 0,-1.7035 0.2238,-2.9307 0.6843,-3.7516 0.4864,-0.8679 1.2499,-1.3079 2.268,-1.3079 0.8815,0 1.564,0.4375 2.0287,1.3018 0.4341,0.8085 0.6833,1.9762 0.7618,3.5704 l 0.0203,0.5015 h 2.456 v -8.4095 h -2.218 v 2.4355 l -0.5743,-0.9513 c -0.4111,-0.6819 -0.918,-1.1988 -1.5076,-1.5356 -0.5891,-0.3369 -1.2562,-0.5074 -1.9826,-0.5074 z m 0.7251,31.1665 c -2.1647,0 -3.8294,-0.8752 -4.9489,-2.6017 -1.0917,-1.684 -1.6451,-4.174 -1.6451,-7.4008 v -11.0052 c 0,-3.5024 0.481,-6.1878 1.4299,-7.9799 0.9828,-1.8563 2.4763,-2.7971 4.439,-2.7971 0.8359,0 1.6055,0.1978 2.2892,0.5891 0.4258,0.2436 0.8129,0.5644 1.1572,0.9599 v -0.9902 h 3.4543 v 9.6457 h -3.6677 l -0.0445,-1.0916 c -0.0722,-1.4774 -0.304,-2.5901 -0.6887,-3.3054 -0.3534,-0.6571 -0.8388,-0.9767 -1.4841,-0.9767 -0.7894,0 -1.3544,0.3246 -1.729,0.9922 -0.4018,0.7159 -0.6053,1.8768 -0.6053,3.4493 v 13.2189 c 0,1.5726 0.201,2.7255 0.5972,3.4271 0.3685,0.6534 0.9366,0.9713 1.7371,0.9713 0.7666,0 1.3266,-0.3382 1.7118,-1.0337 0.4128,-0.7454 0.6218,-1.8916 0.6218,-3.408 v -1.8136 h 3.9222 v 1.5558 c 0,3.0723 -0.5544,5.4554 -1.648,7.0831 -1.1194,1.6666 -2.7676,2.5115 -4.8984,2.5115 z"
           style="fill:#1b1918;fill-rule:evenodd"
           id="path895"
           inkscape:connector-curvature="0" />
        <path
           d="m 380.5259,132.4186 h 4.1898 l -2.0466,-12.2088 z m -6.3177,12.2304 v -3.869 h 1.4348 l 4.4155,-22.2249 h -1.9502 v -3.8907 h 9.4442 v 3.8907 h -1.9503 l 4.3513,22.2249 h 1.3217 v 3.869 h -7.0909 v -3.869 h 1.9823 l -0.8864,-5.0294 h -5.3508 l -0.9347,5.0294 h 1.9176 v 3.869 z"
           style="fill:#fdfcfa;fill-rule:evenodd"
           id="path897"
           inkscape:connector-curvature="0" />
        <path
           d="m 380.8939,132.1095 h 3.4568 l -1.6883,-10.0717 z m 4.1874,0.6182 h -4.9231 l 2.5179,-14.3457 z m -0.5877,11.6122 h 6.4727 v -3.2508 h -1.2667 l -4.4724,-22.8431 h 2.0166 v -3.2725 h -8.8263 v 3.2725 h 2.0178 l -4.5386,22.8431 h -1.3792 v 3.2508 h 6.0858 v -3.2508 h -1.9799 l 1.0489,-5.6476 h 5.8672 l 0.9951,5.6476 h -2.041 z m 7.0909,0.6182 h -7.7091 v -4.4872 h 1.9231 l -0.7777,-4.4112 h -4.8347 l -0.819,4.4112 h 1.8544 v 4.4872 h -7.3222 v -4.4872 h 1.4898 l 4.2932,-21.6068 h -1.883 v -4.5088 h 10.0625 v 4.5088 h -1.8835 l 4.2301,21.6068 h 1.3761 z"
           style="fill:#1b1918;fill-rule:evenodd"
           id="path899"
           inkscape:connector-curvature="0" />
        <path
           d="m 404.5873,118.4903 v 22.3324 h 0.7251 c 1.58,0 2.7157,-0.5514 3.4085,-1.6548 0.6936,-1.1027 1.0398,-2.9158 1.0398,-5.4379 v -8.9844 c 0,-2.3503 -0.3091,-3.9805 -0.9266,-4.8903 -0.6182,-0.9099 -1.7167,-1.365 -3.2955,-1.365 z m -5.7533,-3.8258 h 6.1402 c 3.1693,0 5.4096,0.7807 6.7207,2.3428 1.3105,1.5622 1.9659,4.2202 1.9659,7.9743 v 7.9102 c 0,4.1842 -0.6207,7.1897 -1.8613,9.0165 -1.2408,1.8273 -3.2745,2.7409 -6.1,2.7409 h -6.8655 v -3.869 h 1.8532 v -22.2256 h -1.8532 z"
           style="fill:#fdfcfa;fill-rule:evenodd"
           id="path901"
           inkscape:connector-curvature="0" />
        <path
           d="m 404.8964,140.514 h 0.416 c 1.4793,0 2.5085,-0.494 3.1471,-1.5103 0.6583,-1.0484 0.9921,-2.8224 0.9921,-5.2742 v -8.9843 c 0,-2.2755 -0.2937,-3.8623 -0.8728,-4.7166 -0.5546,-0.8153 -1.5776,-1.2288 -3.0402,-1.2288 h -0.6422 z m 0.416,0.6182 h -1.0342 v -22.9507 h 1.2604 c 1.6796,0 2.8744,0.5044 3.5514,1.4996 0.6597,0.9724 0.9798,2.6285 0.9798,5.0641 v 8.9843 c 0,2.6064 -0.3555,4.4385 -1.0867,5.6031 -0.7498,1.1944 -1.985,1.7996 -3.6707,1.7996 z m -6.1693,3.2075 h 6.5564 c 2.7037,0 4.6701,-0.8764 5.844,-2.6049 1.2,-1.7666 1.8082,-4.7418 1.8082,-8.8434 v -7.9094 c 0,-3.6621 -0.6373,-6.2781 -1.8941,-7.7766 -1.2432,-1.4811 -3.4246,-2.2321 -6.4834,-2.2321 h -5.8311 v 3.2726 h 1.8532 v 22.8435 h -1.8532 z m 6.5564,0.6182 h -7.1746 v -4.4867 h 1.8532 v -21.6073 h -1.8532 v -4.5088 h 6.4493 c 3.2498,0 5.5908,0.8258 6.9569,2.4535 1.3531,1.6121 2.0388,4.3618 2.0388,8.1734 v 7.9094 c 0,4.2276 -0.6442,7.3196 -1.9146,9.1909 -1.2963,1.9082 -3.4344,2.8756 -6.3558,2.8756 z"
           style="fill:#1b1918;fill-rule:evenodd"
           id="path903"
           inkscape:connector-curvature="0" />
        <path
           d="m 424.6038,122.7676 c 0,-1.5472 -0.1967,-2.6759 -0.5892,-3.3856 -0.3926,-0.7091 -1.0182,-1.0639 -1.8774,-1.0639 -0.8598,0 -1.4873,0.3548 -1.8854,1.0639 -0.3974,0.7097 -0.596,1.8384 -0.596,3.3856 v 13.7784 c 0,1.5472 0.1986,2.676 0.596,3.385 0.3981,0.7097 1.0256,1.0638 1.8854,1.0638 0.8592,0 1.4848,-0.3541 1.8774,-1.0638 0.3925,-0.709 0.5892,-1.8378 0.5892,-3.385 z m 3.9321,0.3011 v 13.2195 c 0,2.9517 -0.5434,5.1869 -1.6283,6.7058 -1.0843,1.5189 -2.6748,2.2787 -4.7704,2.2787 -2.0943,0 -3.6873,-0.7598 -4.7777,-2.2787 -1.0905,-1.5189 -1.6358,-3.7541 -1.6358,-6.7058 v -13.2195 c 0,-2.9376 0.5453,-5.1659 1.6358,-6.6848 1.0904,-1.5189 2.6834,-2.2785 4.7777,-2.2785 2.0956,0 3.6861,0.7596 4.7704,2.2785 1.0849,1.5189 1.6283,3.7472 1.6283,6.6848 z"
           style="fill:#fdfcfa;fill-rule:evenodd"
           id="path905"
           inkscape:connector-curvature="0" />
        <path
           d="m 422.1371,118.6273 c -0.7455,0 -1.2741,0.2962 -1.6153,0.9063 -0.369,0.659 -0.557,1.747 -0.557,3.2342 v 13.7776 c 0,1.4874 0.188,2.5754 0.557,3.2344 0.3412,0.6101 0.8698,0.9063 1.6153,0.9063 0.7449,0 1.2704,-0.2956 1.6072,-0.9046 0.3648,-0.6607 0.5502,-1.7487 0.5502,-3.2361 v -13.7776 c 0,-1.4872 -0.1854,-2.5752 -0.5502,-3.2361 -0.3368,-0.6082 -0.8623,-0.9044 -1.6072,-0.9044 z m 0,22.6768 c -0.9755,0 -1.6999,-0.4111 -2.1543,-1.2215 -0.4279,-0.7633 -0.6361,-1.92 -0.6361,-3.5372 v -13.7776 c 0,-1.6165 0.2082,-2.7737 0.6361,-3.5365 0.4544,-0.8109 1.1788,-1.222 2.1543,-1.222 0.976,0 1.6986,0.4116 2.1481,1.2233 0.4223,0.7634 0.6275,1.9199 0.6275,3.5352 v 13.7776 c 0,1.6155 -0.2052,2.772 -0.6275,3.5354 -0.4495,0.8117 -1.1721,1.2233 -2.1481,1.2233 z m 0,-26.8894 c -2.0073,0 -3.4883,0.7028 -4.5269,2.1493 -1.0464,1.4583 -1.5775,3.647 -1.5775,6.5048 v 13.2189 c 0,2.8727 0.5311,5.0684 1.5775,6.526 1.0386,1.4465 2.5191,2.15 4.5269,2.15 2.0084,0 3.487,-0.7035 4.5187,-2.1493 1.0423,-1.4583 1.5715,-3.6547 1.5715,-6.5267 v -13.2189 c 0,-2.8578 -0.5292,-5.0465 -1.5715,-6.5055 -1.0322,-1.4458 -2.5103,-2.1486 -4.5187,-2.1486 z m 0,31.1672 c -2.1902,0 -3.882,-0.8104 -5.0287,-2.4078 -1.1239,-1.5646 -1.6939,-3.8821 -1.6939,-6.8864 v -13.2189 c 0,-2.9899 0.57,-5.3001 1.6939,-6.8652 1.1467,-1.5974 2.8392,-2.4071 5.0287,-2.4071 2.1914,0 3.8807,0.8104 5.022,2.4076 1.1188,1.5658 1.6862,3.876 1.6862,6.8647 v 13.2189 c 0,3.0037 -0.5674,5.3206 -1.6862,6.8857 -1.1406,1.5981 -2.8299,2.4085 -5.022,2.4085 z"
           style="fill:#1b1918;fill-rule:evenodd"
           id="path907"
           inkscape:connector-curvature="0" />
        <path
           d="M 436.7872,144.6492 V 140.78 h 1.8532 v -22.2249 h -1.8532 v -3.8907 h 14.4558 v 8.4689 h -3.1911 v -4.643 h -5.5115 v 8.1462 h 4.6091 v 4.3209 h -4.6091 v 9.8659 h 5.5115 v -5.3737 h 3.1911 v 9.1996 z"
           style="fill:#fdfcfa;fill-rule:evenodd"
           id="path909"
           inkscape:connector-curvature="0" />
        <path
           d="m 437.0961,144.3401 h 13.8377 v -8.5814 h -2.5728 v 5.3737 h -6.1297 v -10.4841 h 4.609 v -3.7027 h -4.609 v -8.7644 h 6.1297 v 4.643 h 2.5728 v -7.8507 h -13.8377 v 3.2725 h 1.8534 v 22.8431 h -1.8534 z m 14.4558,0.6182 h -15.0738 v -4.4872 h 1.8532 v -21.6069 h -1.8532 v -4.5088 h 15.0738 v 9.087 h -3.8091 v -4.643 h -4.8934 v 7.528 h 4.6092 v 4.9391 h -4.6092 v 9.2478 h 4.8934 v -5.3737 h 3.8091 z"
           style="fill:#1b1918;fill-rule:evenodd"
           id="path911"
           inkscape:connector-curvature="0" />
        <path
           d="M 452.8389,144.6492 V 140.78 h 1.2412 l 4.6251,-10.7473 -4.6251,-11.4776 h -1.1448 v -3.8907 h 6.7689 v 3.8907 h -1.6918 l 2.7396,6.8995 2.9004,-6.8995 h -1.5793 v -3.8907 h 6.1081 v 3.8907 H 467.15 l -4.6734,10.8545 4.5763,11.3704 h 1.064 v 3.8692 h -6.7368 V 140.78 h 1.7086 l -2.6594,-6.7491 -2.885,6.7491 h 1.5955 v 3.8692 z"
           style="fill:#fdfcfa;fill-rule:evenodd"
           id="path913"
           inkscape:connector-curvature="0" />
        <path
           d="m 461.6893,144.3401 h 6.1181 v -3.251 h -0.9632 l -4.7029,-11.6833 0.0513,-0.1187 4.7543,-11.0411 h 0.9254 v -3.2725 h -5.4899 v 3.2725 h 1.7358 l -3.3746,8.0258 -3.1867,-8.0258 h 1.8385 v -3.2725 h -6.1508 v 3.2725 h 1.0442 l 4.7518,11.7909 -0.0513,0.1181 -4.7056,10.9341 h -1.1355 v 3.251 h 5.6828 v -3.251 h -1.7551 l 3.3648,-7.8723 3.102,7.8723 h -1.8534 z m 6.7361,0.6182 h -7.3543 v -4.4872 h 1.5634 l -2.2166,-5.6266 -2.4047,5.6266 h 1.436 v 4.4872 H 452.53 v -4.4872 h 1.3465 l 4.494,-10.4422 -4.4991,-11.1647 h -1.245 v -4.5088 h 7.3871 v 4.5088 h -1.5461 l 2.2929,5.7731 2.4269,-5.7731 h -1.423 v -4.5088 h 6.7263 v 4.5088 h -1.1369 l -4.5423,10.5496 4.4508,11.0573 h 1.1633 z"
           style="fill:#1b1918;fill-rule:evenodd"
           id="path915"
           inkscape:connector-curvature="0" />
        <path
           d="m 477.4157,103.9816 h 3.4648 l -4.3834,7.695 h -1.9825 z m -8.0577,40.6678 v -3.8691 h 1.8532 v -22.2255 h -1.8532 v -3.8908 h 14.4558 v 8.469 h -3.1916 v -4.6425 h -5.5116 v 8.1461 h 4.6097 v 4.3205 h -4.6097 v 9.8658 h 5.5116 v -5.3737 h 3.1916 v 9.2002 z"
           style="fill:#fdfcfa;fill-rule:evenodd"
           id="path917"
           inkscape:connector-curvature="0" />
        <path
           d="m 474.9613,111.3675 h 1.3555 l 4.0324,-7.0768 h -2.7201 z m 1.7153,0.6182 h -2.6086 l 3.1341,-8.313 h 4.2109 z m -7.0093,32.3542 h 13.8369 v -8.5814 h -2.5727 v 5.3737 h -6.1299 v -10.4841 h 4.6091 v -3.7022 h -4.6091 v -8.7649 h 6.1299 v 4.643 h 2.5727 v -7.8507 h -13.8369 v 3.2726 h 1.8532 v 22.8435 h -1.8532 z m 14.4551,0.618 h -15.0733 v -4.4865 h 1.8532 v -21.6073 h -1.8532 v -4.509 h 15.0733 v 9.087 h -3.8091 v -4.643 h -4.8935 v 7.5286 h 4.6091 v 4.9386 h -4.6091 v 9.2477 h 4.8935 v -5.3737 h 3.8091 z"
           style="fill:#1b1918;fill-rule:evenodd"
           id="path919"
           inkscape:connector-curvature="0" />
        <path
           d="m 491.6142,127.0882 h 2.2081 c 0.9564,0 1.6519,-0.2436 2.0869,-0.7307 0.4353,-0.4871 0.6528,-1.2753 0.6528,-2.3645 v -2.5795 c 0,-1.1029 -0.2094,-1.8662 -0.6286,-2.2891 -0.4186,-0.4222 -1.2141,-0.6343 -2.3848,-0.6343 h -1.9344 z m -5.7532,17.5608 v -3.869 h 1.8532 v -22.2249 h -1.8532 v -3.8907 h 7.9613 c 2.4171,0 4.1096,0.5087 5.0763,1.5262 0.9675,1.0176 1.4509,2.7583 1.4509,5.2229 v 1.9774 c 0,1.8199 -0.2849,3.1564 -0.8542,4.0089 -0.57,0.853 -1.5473,1.4081 -2.9333,1.6659 1.4181,0.2435 2.4041,0.7133 2.9573,1.4083 0.5534,0.6947 0.8302,1.7945 0.8302,3.299 v 7.007 h 1.8532 v 3.869 h -5.6407 v -10.6608 c 0,-1.2326 -0.204,-2.0672 -0.6119,-2.5042 -0.4087,-0.437 -1.1986,-0.6559 -2.3695,-0.6559 h -1.9664 v 9.9519 h 1.7402 v 3.869 z"
           style="fill:#fdfcfa;fill-rule:evenodd"
           id="path921"
           inkscape:connector-curvature="0" />
        <path
           d="m 491.9233,126.7791 h 1.899 c 0.8598,0 1.4849,-0.2113 1.8563,-0.6275 0.3808,-0.4265 0.5744,-1.1528 0.5744,-2.1586 v -2.5795 c 0,-1.0132 -0.1811,-1.7104 -0.5391,-2.0716 -0.3566,-0.3597 -1.0854,-0.5427 -2.1653,-0.5427 h -1.6253 z m 1.899,0.6182 h -2.5172 v -9.2163 h 2.2435 c 1.2684,0 2.1208,0.2375 2.6049,0.7258 0.4828,0.4877 0.7176,1.3074 0.7176,2.5067 v 2.5795 c 0,1.1789 -0.2392,2.0197 -0.7313,2.5704 -0.4944,0.5532 -1.274,0.8339 -2.3175,0.8339 z m 3.0488,16.9426 h 5.0227 v -3.2508 h -1.8534 v -7.3161 c 0,-1.4255 -0.2565,-2.4707 -0.7635,-3.1068 -0.5018,-0.6307 -1.4328,-1.0665 -2.7673,-1.2963 l -1.7018,-0.2925 1.6974,-0.3158 c 1.2944,-0.2406 2.2136,-0.7566 2.7328,-1.5337 0.5324,-0.7968 0.8024,-2.0875 0.8024,-3.837 v -1.9774 c 0,-2.3707 -0.4593,-4.0564 -1.3655,-5.0103 -0.9019,-0.9489 -2.5351,-1.4297 -4.8526,-1.4297 h -7.6522 v 3.2725 h 1.8532 v 22.8431 h -1.8532 v 3.2508 h 6.8752 v -3.2508 h -1.7402 V 130.519 h 2.2755 c 1.2717,0 2.121,0.2467 2.5952,0.7542 0.4678,0.5008 0.6953,1.389 0.6953,2.715 z m 5.6407,0.6182 h -6.2588 v -10.9699 c 0,-1.4274 -0.288,-2.035 -0.5291,-2.2934 -0.3456,-0.3698 -1.067,-0.5576 -2.1433,-0.5576 h -1.6573 v 9.3337 h 1.7402 v 4.4872 h -8.1116 v -4.4872 h 1.8532 v -21.6068 h -1.8532 v -4.5088 h 8.2704 c 2.4936,0 4.2771,0.5458 5.3003,1.6221 1.0193,1.0724 1.536,2.9016 1.536,5.4361 v 1.9774 c 0,1.8996 -0.2966,3.2676 -0.9063,4.1808 -0.4357,0.6515 -1.0916,1.1454 -1.9571,1.4742 0.8809,0.2863 1.5394,0.6998 1.9659,1.2351 0.5958,0.7486 0.8975,1.9232 0.8975,3.492 v 6.6979 h 1.8532 z"
           style="fill:#1b1918;fill-rule:evenodd"
           id="path923"
           inkscape:connector-curvature="0" />
        <path
           d="m 515.9013,134.7401 v 1.2469 c 0,3.0234 -0.5316,5.3273 -1.5954,6.9104 -1.064,1.5838 -2.6112,2.3751 -4.6413,2.3751 -2.0633,0 -3.6261,-0.8204 -4.6899,-2.4611 -1.0633,-1.6405 -1.5955,-4.052 -1.5955,-7.233 v -11.0052 c 0,-3.4673 0.4649,-6.079 1.3939,-7.8347 0.9291,-1.755 2.3181,-2.6328 4.1659,-2.6328 0.7843,0 1.4959,0.1825 2.1357,0.5478 0.6392,0.3654 1.1795,0.9136 1.6202,1.6443 v -1.6338 h 2.8355 v 9.0276 h -3.0618 l -0.032,-0.7948 c -0.0756,-1.5331 -0.3172,-2.6798 -0.7251,-3.4389 -0.4087,-0.7598 -0.9941,-1.1393 -1.7569,-1.1393 -0.9026,0 -1.569,0.3832 -1.9986,1.1498 -0.4295,0.7665 -0.6447,1.967 -0.6447,3.6001 v 13.2195 c 0,1.6331 0.2121,2.8263 0.6368,3.5785 0.4241,0.7523 1.0929,1.1288 2.0065,1.1288 0.8809,0 1.5417,-0.3975 1.9824,-1.1931 0.4402,-0.7955 0.6602,-1.9811 0.6602,-3.5575 v -1.5046 z"
           style="fill:#fdfcfa;fill-rule:evenodd"
           id="path925"
           inkscape:connector-curvature="0" />
        <path
           d="m 508.9392,114.4147 c -1.7402,0 -3.0136,0.8072 -3.8927,2.4682 -0.9012,1.7031 -1.358,4.2901 -1.358,7.6906 v 11.0052 c 0,3.1057 0.5204,5.4825 1.546,7.0643 1.012,1.5616 2.4609,2.32 4.4303,2.32 1.9386,0 3.3728,-0.7319 4.3847,-2.2383 1.0237,-1.5238 1.5429,-3.7906 1.5429,-6.7381 v -0.9376 h -2.6859 v 1.1954 c 0,1.645 -0.2286,2.8573 -0.6991,3.7078 -0.4977,0.897 -1.2548,1.3519 -2.2526,1.3519 -1.0286,0 -1.7952,-0.4326 -2.276,-1.2856 -0.4551,-0.8068 -0.6764,-2.0266 -0.6764,-3.7308 v -13.2189 c 0,-1.7035 0.2238,-2.9307 0.6843,-3.7516 0.4866,-0.8679 1.2488,-1.3079 2.2681,-1.3079 0.8809,0 1.5639,0.4375 2.0288,1.3018 0.4346,0.8092 0.6837,1.9769 0.761,3.5704 l 0.0203,0.5015 h 2.4566 v -8.4095 h -2.2179 v 2.4355 l -0.5737,-0.9513 c -0.4111,-0.6819 -0.9185,-1.1981 -1.5084,-1.5356 -0.5891,-0.3369 -1.256,-0.5074 -1.9823,-0.5074 z m 0.7256,31.1665 c -2.1648,0 -3.8301,-0.8752 -4.9497,-2.6017 -1.0916,-1.684 -1.6448,-4.174 -1.6448,-7.4008 v -11.0052 c 0,-3.5019 0.481,-6.1873 1.4291,-7.9799 0.9829,-1.8563 2.4764,-2.7971 4.4398,-2.7971 0.8351,0 1.6053,0.1978 2.289,0.5891 0.4265,0.2436 0.8136,0.5649 1.1572,0.9599 v -0.9902 h 3.4543 v 9.6457 h -3.6676 l -0.0452,-1.0916 c -0.0716,-1.4761 -0.3035,-2.5895 -0.6879,-3.3054 -0.3536,-0.6571 -0.8388,-0.9767 -1.4842,-0.9767 -0.7894,0 -1.355,0.3246 -1.7284,0.9916 -0.4024,0.7171 -0.6058,1.8774 -0.6058,3.4499 v 13.2189 c 0,1.5726 0.2003,2.7255 0.5965,3.4271 0.369,0.6534 0.9371,0.9713 1.7377,0.9713 0.7665,0 1.3265,-0.3382 1.7116,-1.0337 0.4124,-0.7454 0.6219,-1.8921 0.6219,-3.408 v -1.8136 h 3.9223 v 1.5558 c 0,3.0723 -0.5551,5.4554 -1.648,7.0831 -1.1195,1.6666 -2.7675,2.5115 -4.8978,2.5115 z"
           style="fill:#1b1918;fill-rule:evenodd"
           id="path927"
           inkscape:connector-curvature="0" />
        <path
           d="M 517.4486,144.6492 V 140.78 h 1.8532 v -22.2249 h -1.8532 v -3.8907 h 7.6226 v 3.8907 h -1.8693 V 140.78 h 1.8693 v 3.8692 z"
           style="fill:#fdfcfa;fill-rule:evenodd"
           id="path929"
           inkscape:connector-curvature="0" />
        <path
           d="m 517.7577,144.3401 h 7.0044 v -3.251 h -1.8693 V 118.246 h 1.8693 v -3.2725 h -7.0044 v 3.2725 h 1.8532 v 22.8431 h -1.8532 z m 7.6226,0.6182 h -8.2408 v -4.4872 h 1.8532 v -21.6069 h -1.8532 v -4.5088 h 8.2408 v 4.5088 h -1.8693 v 21.6069 h 1.8693 z"
           style="fill:#1b1918;fill-rule:evenodd"
           id="path931"
           inkscape:connector-curvature="0" />
        <path
           d="M 529.7293,144.6492 V 140.78 h 2.2073 v -22.3756 h -2.5462 v 5.03 h -2.6747 v -8.77 h 14.3592 v 8.77 h -2.7074 v -5.03 h -2.5469 V 140.78 h 2.2569 v 3.8692 z"
           style="fill:#fdfcfa;fill-rule:evenodd"
           id="path933"
           inkscape:connector-curvature="0" />
        <path
           d="m 530.0382,144.3401 h 7.7302 v -3.251 h -2.2569 v -22.9938 h 3.1651 v 5.03 h 2.0892 v -8.1518 h -13.741 v 8.1518 h 2.0565 v -5.03 h 3.1644 v 22.9938 h -2.2075 z m 8.3484,0.6182 h -8.9664 v -4.4872 h 2.2073 v -21.7577 h -1.928 v 5.0301 h -3.2929 v -9.3881 h 14.9774 v 9.3881 h -3.3256 v -5.0301 h -1.9287 v 21.7577 h 2.2569 z"
           style="fill:#1b1918;fill-rule:evenodd"
           id="path935"
           inkscape:connector-curvature="0" />
        <path
           d="m 551.7924,122.7676 c 0,-1.5472 -0.1959,-2.6759 -0.5886,-3.3856 -0.3925,-0.7091 -1.0181,-1.0639 -1.8772,-1.0639 -0.86,0 -1.488,0.3548 -1.8855,1.0639 -0.3981,0.7097 -0.5964,1.8384 -0.5964,3.3856 v 13.7784 c 0,1.5472 0.1983,2.676 0.5964,3.385 0.3975,0.7097 1.0255,1.0638 1.8855,1.0638 0.8591,0 1.4847,-0.3541 1.8772,-1.0638 0.3927,-0.709 0.5886,-1.8378 0.5886,-3.385 z m 3.9321,0.3011 v 13.2195 c 0,2.9517 -0.5427,5.1869 -1.6277,6.7058 -1.0848,1.5189 -2.6754,2.2787 -4.7702,2.2787 -2.095,0 -3.688,-0.7598 -4.7785,-2.2787 -1.0904,-1.5189 -1.6357,-3.7541 -1.6357,-6.7058 v -13.2195 c 0,-2.9376 0.5453,-5.1659 1.6357,-6.6848 1.0905,-1.5189 2.6835,-2.2785 4.7785,-2.2785 2.0948,0 3.6854,0.7596 4.7702,2.2785 1.085,1.5189 1.6277,3.7472 1.6277,6.6848 z"
           style="fill:#fdfcfa;fill-rule:evenodd"
           id="path937"
           inkscape:connector-curvature="0" />
        <path
           d="m 549.3264,118.6273 c -0.7456,0 -1.2748,0.2962 -1.6154,0.9058 -0.3703,0.6595 -0.5576,1.7475 -0.5576,3.2347 v 13.7776 c 0,1.4874 0.1873,2.5754 0.5576,3.2344 0.3406,0.6101 0.8698,0.9063 1.6154,0.9063 0.7442,0 1.2702,-0.2956 1.6072,-0.9046 0.3641,-0.6595 0.5495,-1.748 0.5495,-3.2361 v -13.7776 c 0,-1.4872 -0.1854,-2.5764 -0.5495,-3.2361 -0.337,-0.6082 -0.863,-0.9044 -1.6072,-0.9044 z m 0,22.6768 c -0.9755,0 -1.7013,-0.4111 -2.1549,-1.222 -0.4279,-0.7628 -0.6361,-1.9195 -0.6361,-3.5367 v -13.7776 c 0,-1.6165 0.2082,-2.7737 0.6361,-3.5365 0.4536,-0.8109 1.1794,-1.222 2.1549,-1.222 0.976,0 1.6987,0.4116 2.1481,1.2233 0.4215,0.7627 0.6268,1.9194 0.6268,3.5352 v 13.7776 c 0,1.616 -0.2053,2.7727 -0.6268,3.5354 -0.4494,0.8117 -1.1721,1.2233 -2.1481,1.2233 z m 0,-26.8894 c -2.0079,0 -3.4889,0.7028 -4.5268,2.1493 -1.0479,1.4583 -1.5783,3.647 -1.5783,6.5048 v 13.2189 c 0,2.8727 0.5304,5.0684 1.5783,6.526 1.0379,1.4465 2.5189,2.15 4.5268,2.15 2.0078,0 3.4864,-0.7035 4.5188,-2.1493 1.0421,-1.4583 1.5707,-3.654 1.5707,-6.5267 v -13.2189 c 0,-2.8578 -0.5286,-5.0465 -1.5707,-6.5055 -1.033,-1.4458 -2.511,-2.1486 -4.5188,-2.1486 z m 0,31.1672 c -2.1909,0 -3.8827,-0.8104 -5.0294,-2.4078 -1.1239,-1.5646 -1.6939,-3.8814 -1.6939,-6.8864 v -13.2189 c 0,-2.9899 0.57,-5.3001 1.6939,-6.8652 1.1472,-1.5974 2.8392,-2.4071 5.0294,-2.4071 2.1907,0 3.8801,0.8104 5.0219,2.4076 1.1183,1.5653 1.6857,3.8753 1.6857,6.8647 v 13.2189 c 0,3.0043 -0.5674,5.3213 -1.6857,6.8857 -1.1418,1.5981 -2.8307,2.4085 -5.0219,2.4085 z"
           style="fill:#1b1918;fill-rule:evenodd"
           id="path939"
           inkscape:connector-curvature="0" />
      </g>
    </g>
    <g
       id="Layer1000-3"
       transform="matrix(0.11858937,0,0,0.11131074,-25.077162,-3.1078772)"
       inkscape:export-xdpi="147.23"
       inkscape:export-ydpi="147.23">
      <path
         inkscape:connector-curvature="0"
         id="path837-6"
         style="fill:#009ee0;fill-rule:evenodd"
         d="m 278.6203,134.083 h 288.0935 v 40.6183 H 278.6203 Z" />
      <path
         inkscape:connector-curvature="0"
         id="path839-7"
         style="fill:#e6312c;fill-rule:evenodd"
         d="m 278.6203,85.2603 h 287.5359 v 45.4579 H 278.6203 Z" />
      <path
         inkscape:connector-curvature="0"
         id="path841-5"
         style="fill:#e6312c;fill-rule:evenodd"
         d="M 278.853,368.6597 V 368.4193 177.345 h 284.1836 v 191.0743 0.2404 l -0.6979,14.1801 -2.0951,13.9403 -3.7237,13.4592 -4.6548,12.9785 -6.0513,12.0176 -7.2152,11.7767 -8.1462,10.575 -9.0771,10.0946 -10.2412,9.1334 -10.939,7.9311 -11.637,6.9704 -12.5684,6.0086 -13.034,4.8068 -13.499,3.3648 -14.198,2.1628 -14.4297,0.7214 -14.4306,-0.7214 -14.1973,-2.1628 -13.4995,-3.3648 -13.034,-4.8068 -12.5679,-6.0086 -11.6376,-6.9704 -10.9391,-7.9311 -10.0081,-9.1334 -9.3102,-10.0946 -8.1455,-10.575 -6.9828,-11.7767 -6.0512,-12.0176 -4.8878,-12.9785 -3.4914,-13.4592 -2.0943,-13.9403 z" />
      <path
         inkscape:connector-curvature="0"
         id="path843-3"
         style="fill:#fecb02;fill-rule:evenodd"
         d="m 319.351,362.8914 v -0.2405 -143.9663 h 203.1878 v 143.9663 0.2405 l -0.4654,10.8154 -1.6294,10.5755 -2.5599,10.094 -3.2584,9.8543 -4.4224,9.1334 -5.1202,8.8928 -5.8188,8.1716 -6.5167,7.4507 -7.2152,6.73 -7.9138,6.2484 -8.3785,5.2879 -8.8441,4.3258 -9.3102,3.6059 -9.7751,2.6431 -10.0087,1.6827 -10.4735,0.481 -10.4736,-0.481 -10.0081,-1.6827 -9.7751,-2.6431 -9.3102,-3.6059 -8.8441,-4.3258 -8.3792,-5.2879 -7.6806,-6.2484 -7.2147,-6.73 -6.7498,-7.4507 -5.8188,-8.1716 -4.8878,-8.8928 -4.4217,-9.1334 -3.259,-9.8543 -2.5598,-10.094 -1.6294,-10.5755 z" />
      <path
         inkscape:connector-curvature="0"
         id="path845-5"
         style="fill:#ffffff;fill-rule:evenodd"
         d="m 325.6352,361.6896 v -0.2404 -136.0354 h 190.3869 v 136.0354 0.2404 l -0.4654,10.3352 -1.3966,9.8541 -2.3274,9.6137 -3.2583,9.3733 -4.1899,8.6524 -4.6548,8.1715 -5.5857,7.9317 -6.0518,6.9699 -6.7491,6.4894 -7.4484,5.7681 -7.9132,5.0473 -8.3785,4.0862 -8.6123,3.3647 -9.0771,2.6438 -9.542,1.4421 -9.7757,0.4803 -9.7756,-0.4803 -9.3097,-1.4421 -9.0771,-2.6438 -8.8441,-3.3647 -8.1462,-4.0862 -7.9136,-5.0473 -7.2152,-5.7681 -6.7498,-6.4894 -6.2837,-6.9699 -5.3534,-7.9317 -4.8878,-8.1715 -3.9568,-8.6524 -3.2583,-9.3733 -2.3274,-9.6137 -1.3964,-9.8541 z" />
      <path
         inkscape:connector-curvature="0"
         id="path847-6"
         style="fill:#fecb02;fill-rule:evenodd"
         d="M 269.7761,145.8597 V 80.0053 h 302.3378 v 94.4558 184.3448 0.2397 l -0.2325,7.9317 -0.4654,7.9312 -1.164,7.9317 -1.1634,7.6911 -1.8625,7.4508 -1.8619,7.4507 -2.5599,7.2103 -2.5605,7.2103 -3.0258,6.9699 -3.4909,6.7299 -3.4912,6.4889 -3.957,6.249 -4.1892,6.249 -4.6549,5.7681 -4.6548,5.7687 -5.1209,5.5277 -5.1203,5.0473 -5.5857,5.0472 -5.8187,4.5665 -5.8187,4.3265 -6.0514,4.0855 -6.5167,3.8455 -6.5172,3.3648 -6.5168,3.1248 -6.9821,2.8842 -6.9828,2.4035 -7.2152,2.163 -7.2147,1.6827 -7.4482,1.4414 -7.6808,0.962 -7.6806,0.4803 -7.6807,0.2404 -7.6801,-0.2404 -7.6808,-0.4803 -7.6806,-0.962 -7.4484,-1.4414 -7.2151,-1.6827 -7.2152,-2.163 -6.9822,-2.4035 -6.7497,-2.8842 -6.7498,-3.1248 -6.5167,-3.3648 -6.2842,-3.8455 -6.2842,-4.0855 -5.8183,-4.3265 -5.8188,-4.5665 -5.3532,-5.0472 -5.3534,-5.0473 -4.8878,-5.5277 -4.8873,-5.7687 -4.4222,-5.7681 -4.1894,-6.249 -3.957,-6.249 -3.7237,-6.4889 -3.2584,-6.7299 -3.0258,-6.9699 -2.793,-7.2103 -2.3274,-7.2103 -2.0948,-7.4507 -1.6289,-7.4508 -1.3971,-7.6911 -0.931,-7.9317 -0.4654,-7.9312 -0.2325,-7.9317 v -0.2397 z m 9.0771,6.7294 V 89.619 h 284.1836 v 90.3696 176.1733 0.2399 l -0.698,15.3824 -2.095,14.6611 -3.7237,14.4206 -4.6548,13.6996 -6.0518,12.9785 -6.9822,12.4981 -8.3787,11.2962 -9.0777,10.8155 -10.2405,9.6137 -10.9391,8.6525 -11.6376,7.4507 -12.3355,6.249 -13.0333,5.0473 -13.7326,3.6051 -14.1975,2.4034 -14.4303,0.7214 -14.4299,-0.7214 -14.198,-2.4034 -13.4988,-3.6051 -13.034,-5.0473 -12.3355,-6.249 -11.87,-7.4507 -10.9391,-8.6525 -10.0087,-9.6137 -9.0766,-10.8155 -8.3792,-11.2962 -6.9822,-12.4981 -6.0511,-12.9785 -4.6555,-13.6996 -3.7237,-14.4206 -2.0951,-14.6611 -0.6979,-15.3824 v -0.2399 z" />
      <path
         inkscape:connector-curvature="0"
         id="path849-2"
         style="fill:#fecb02;fill-rule:evenodd"
         d="m 275.5945,127.353 h 289.3044 v 6.7293 H 275.5945 Z" />
      <path
         inkscape:connector-curvature="0"
         id="path851-9"
         style="fill:#fecb02;fill-rule:evenodd"
         d="m 279.0859,171.3361 h 286.2784 v 6.7292 H 279.0859 Z" />
      <path
         inkscape:connector-curvature="0"
         id="path853-1"
         style="fill:#e6312c;fill-rule:evenodd"
         d="m 349.841,304.0067 19.5507,2.163 56.0922,74.0265 v 23.3135 z" />
      <path
         inkscape:connector-curvature="0"
         id="path855-2"
         style="fill:#e6312c;fill-rule:evenodd"
         d="m 496.9368,299.9209 -18.3872,1.2017 -48.6435,78.5931 v 24.2747 z" />
      <path
         inkscape:connector-curvature="0"
         id="path857-7"
         style="fill:#e6312c;fill-rule:evenodd"
         d="m 337.9707,294.8737 -7.2152,0.481 5.1204,6.7292 5.3532,6.9699 5.3534,7.2108 5.3532,7.2103 5.3534,7.4508 5.5857,7.4507 5.5858,7.4502 5.5857,7.4507 5.5864,7.4507 5.5858,7.4509 5.5857,7.4506 5.3532,7.4507 5.5858,7.4509 5.3534,7.2103 5.3532,6.9704 5.3534,6.9697 2.5597,2.163 2.3281,1.4421 2.5597,0.7209 2.5604,0.2404 2.5599,-0.2404 2.5605,-0.7209 2.5604,-1.4421 2.5599,-2.163 73.0825,-116.3268 -5.8188,-0.7215 -70.7546,110.5589 -1.8618,1.6825 -1.862,1.2017 -1.8625,0.7209 h -1.6289 l -1.862,-0.2404 -1.8617,-0.9613 -1.6295,-1.2017 -1.862,-1.9226 z" />
      <path
         inkscape:connector-curvature="0"
         id="path859-0"
         style="fill:#e6312c;fill-rule:evenodd"
         d="m 407.3293,284.5389 25.835,-0.2404 14.6629,21.6308 v 20.1892 h -40.4979 z" />
      <path
         inkscape:connector-curvature="0"
         id="path861-9"
         style="fill:#e6312c;fill-rule:evenodd"
         d="m 399.6485,329.4836 h 54.2304 v 6.4896 h -54.2304 z" />
      <path
         inkscape:connector-curvature="0"
         id="path863-3"
         style="fill:#e6312c;fill-rule:evenodd"
         d="m 375.9084,291.5086 h 6.0512 v 18.7471 h -6.0512 z" />
      <path
         inkscape:connector-curvature="0"
         id="path865-6"
         style="fill:#e6312c;fill-rule:evenodd"
         d="m 385.451,294.8738 h 9.5427 v 12.7386 h -9.5427 z" />
      <path
         inkscape:connector-curvature="0"
         id="path867-0"
         style="fill:#e6312c;fill-rule:evenodd"
         d="m 398.4852,291.5086 h 4.8878 v 18.7471 h -4.8878 z" />
      <path
         inkscape:connector-curvature="0"
         id="path869-6"
         style="fill:#e6312c;fill-rule:evenodd"
         d="m 411.2859,281.8951 h 20.0163" />
      <path
         inkscape:connector-curvature="0"
         id="path871-2"
         style="fill:#e6312c;fill-rule:evenodd"
         d="m 410.8205,281.8951 h 18.6199 v -0.9612 -0.962 l -0.2325,-0.9611 v -0.7209 l -1.6295,-1.4421 -1.862,-1.4421 -1.8617,-1.2017 -2.0951,-0.7209 h -2.3273 l -2.5605,0.7209 -2.7929,1.4421 -3.2584,2.6438 z" />
      <path
         inkscape:connector-curvature="0"
         id="path873-6"
         style="fill:#fdfcfa;fill-rule:evenodd"
         d="m 295.8678,143.0155 c -0.5267,0.7307 -1.1176,1.2896 -1.7729,1.6766 -0.6552,0.3869 -1.3321,0.5804 -2.0307,0.5804 -1.9125,0 -3.3763,-0.8308 -4.3914,-2.493 -1.0149,-1.6622 -1.5231,-4.0626 -1.5231,-7.201 v -11.5857 c 0,-3.2379 0.4728,-5.6958 1.4179,-7.3722 0.9459,-1.6771 2.3262,-2.5154 4.1419,-2.5154 0.7843,0 1.4935,0.212 2.1276,0.6343 0.6336,0.4229 1.1763,1.0423 1.6277,1.8594 v -1.9349 h 2.7075 v 8.8133 h -2.9332 l -0.032,-0.8383 c -0.0538,-1.4619 -0.2851,-2.5475 -0.6931,-3.2564 -0.4086,-0.7097 -1.0046,-1.0645 -1.7889,-1.0645 -0.9026,0 -1.569,0.3839 -1.9986,1.1503 -0.4295,0.7666 -0.6442,1.9664 -0.6442,3.6003 v 13.2621 c 0,1.6338 0.2091,2.8194 0.6282,3.5575 0.419,0.738 1.0905,1.1065 2.0146,1.1065 0.8809,0 1.5417,-0.39 1.9824,-1.1714 0.4402,-0.7808 0.6608,-1.959 0.6608,-3.5352 v -2.2144 h -1.9824 v -3.9983 h 5.1896 v 14.5739 h -1.8534 z" />
      <path
         inkscape:connector-curvature="0"
         id="path875-1"
         style="fill:#1b1918;fill-rule:evenodd"
         d="m 291.7097,114.4147 c -1.7116,0 -2.9784,0.7713 -3.8729,2.3575 -0.9142,1.6215 -1.3778,4.0509 -1.3778,7.2208 v 11.5857 c 0,3.0654 0.4969,5.4343 1.4773,7.0396 0.9645,1.5776 2.3144,2.3447 4.1282,2.3447 0.6385,0 1.269,-0.1805 1.873,-0.537 0.6151,-0.3629 1.1802,-0.8983 1.6796,-1.5913 l 0.2924,-0.4062 0.9995,1.9114 h 1.357 v -13.955 h -4.5713 v 3.3802 h 1.9823 v 2.5226 c 0,1.6455 -0.2287,2.8523 -0.7004,3.688 -0.4976,0.8816 -1.2548,1.3284 -2.2513,1.3284 -1.0398,0 -1.8075,-0.4246 -2.2836,-1.2629 -0.45,-0.7931 -0.6688,-2.0065 -0.6688,-3.7102 v -13.2622 c 0,-1.7035 0.2238,-2.9307 0.6844,-3.7516 0.4865,-0.8679 1.2499,-1.3079 2.268,-1.3079 0.8987,0 1.5912,0.4104 2.0567,1.2189 0.4377,0.7603 0.6774,1.8718 0.7336,3.3994 l 0.0211,0.5402 h 2.3268 v -8.1943 h -2.0894 v 2.8238 l -0.5798,-1.0491 c -0.4248,-0.7691 -0.9391,-1.3582 -1.5287,-1.7512 -0.5793,-0.3864 -1.2377,-0.5823 -1.9559,-0.5823 z m 0.3548,31.1665 c -2.019,0 -3.5853,-0.8882 -4.656,-2.6408 -1.0405,-1.7036 -1.5677,-4.1806 -1.5677,-7.3617 V 123.993 c 0,-3.2775 0.4903,-5.8088 1.4577,-7.5243 0.9995,-1.7728 2.4837,-2.6722 4.4112,-2.6722 0.8425,0 1.6159,0.2311 2.299,0.6862 0.4191,0.2793 0.8029,0.6415 1.1472,1.0829 v -1.2103 h 3.3258 v 9.4307 h -3.5396 l -0.044,-1.1356 c -0.0518,-1.4045 -0.2712,-2.4523 -0.6522,-3.1136 -0.3517,-0.6121 -0.8493,-0.9095 -1.5206,-0.9095 -0.7894,0 -1.3543,0.3246 -1.729,0.9922 -0.4018,0.7159 -0.6052,1.8768 -0.6052,3.4493 v 13.2622 c 0,1.5719 0.1985,2.7174 0.5886,3.4043 0.3627,0.6397 0.9339,0.9508 1.7456,0.9508 0.7679,0 1.3284,-0.3321 1.713,-1.0146 0.4123,-0.73 0.6205,-1.8686 0.6205,-3.3838 v -1.9046 h -1.9823 v -4.6164 h 5.8075 v 15.1914 h -2.3489 l -0.717,-1.3711 c -0.4749,0.5768 -0.9997,1.0366 -1.5659,1.3711 -0.701,0.4136 -1.4367,0.6231 -2.1877,0.6231 z" />
      <path
         inkscape:connector-curvature="0"
         id="path877-8"
         style="fill:#fdfcfa;fill-rule:evenodd"
         d="m 306.0048,127.0882 h 2.208 c 0.9562,0 1.6517,-0.2436 2.087,-0.7307 0.4351,-0.4871 0.6527,-1.2753 0.6527,-2.3645 v -2.5795 c 0,-1.1029 -0.2096,-1.8662 -0.6287,-2.2891 -0.4185,-0.4222 -1.214,-0.6343 -2.3849,-0.6343 h -1.9341 z m -5.7533,17.5608 v -3.869 h 1.8532 v -22.2249 h -1.8532 v -3.8907 h 7.9613 c 2.4171,0 4.1096,0.5087 5.0764,1.5262 0.9674,1.0176 1.4509,2.7583 1.4509,5.2229 v 1.9774 c 0,1.8199 -0.285,3.1564 -0.8545,4.0089 -0.5693,0.853 -1.5472,1.4081 -2.9331,1.6659 1.4181,0.2435 2.4041,0.7133 2.9573,1.4083 0.5532,0.6947 0.8303,1.7945 0.8303,3.299 v 7.007 h 1.8532 v 3.869 h -5.6408 v -10.6608 c 0,-1.2326 -0.204,-2.0672 -0.6126,-2.5042 -0.4079,-0.437 -1.198,-0.6559 -2.3687,-0.6559 h -1.9664 v 9.9519 h 1.7407 v 3.869 z" />
      <path
         inkscape:connector-curvature="0"
         id="path879-7"
         style="fill:#1b1918;fill-rule:evenodd"
         d="m 306.3139,126.7791 h 1.8989 c 0.8599,0 1.4849,-0.2113 1.8564,-0.6275 0.3808,-0.4265 0.5742,-1.1528 0.5742,-2.1586 v -2.5795 c 0,-1.0132 -0.1817,-1.7104 -0.539,-2.0716 -0.3568,-0.3597 -1.0855,-0.5427 -2.1655,-0.5427 h -1.625 z m 1.8989,0.6182 h -2.5171 v -9.2163 h 2.2432 c 1.2685,0 2.1203,0.2375 2.6045,0.7258 0.4832,0.4877 0.7182,1.3074 0.7182,2.5067 v 2.5795 c 0,1.1782 -0.2392,2.019 -0.7312,2.5704 -0.4947,0.5532 -1.2741,0.8339 -2.3176,0.8339 z m 3.0488,16.9426 h 5.0226 v -3.2508 h -1.8532 v -7.3161 c 0,-1.4255 -0.2566,-2.4707 -0.7628,-3.1068 -0.5026,-0.6307 -1.4335,-1.067 -2.7683,-1.2963 l -1.7018,-0.2925 1.6982,-0.3158 c 1.2944,-0.2406 2.2136,-0.7566 2.7323,-1.5337 0.5322,-0.7968 0.8024,-2.0875 0.8024,-3.837 v -1.9774 c 0,-2.3707 -0.4593,-4.0564 -1.3656,-5.0103 -0.9019,-0.9489 -2.5345,-1.4297 -4.8526,-1.4297 h -7.6522 v 3.2725 h 1.8532 v 22.8431 h -1.8532 v 3.2508 h 6.8758 v -3.2508 h -1.7407 V 130.519 h 2.2755 c 1.2721,0 2.1208,0.2467 2.5944,0.7542 0.4686,0.5008 0.696,1.389 0.696,2.715 z m 5.6408,0.6182 h -6.259 v -10.9699 c 0,-1.4274 -0.2874,-2.035 -0.5292,-2.2934 -0.3455,-0.3698 -1.0668,-0.5576 -2.143,-0.5576 h -1.6573 v 9.3337 h 1.7407 v 4.4872 h -8.1122 v -4.4872 h 1.8532 v -21.6068 h -1.8532 v -4.5088 h 8.2704 c 2.4937,0 4.2777,0.5458 5.3001,1.6221 1.0193,1.0724 1.5363,2.9016 1.5363,5.4361 v 1.9774 c 0,1.8996 -0.2969,3.2676 -0.9063,4.1808 -0.4358,0.6515 -1.0912,1.1454 -1.9564,1.4742 0.8796,0.2863 1.5385,0.6998 1.965,1.2351 0.5959,0.7481 0.8977,1.9232 0.8977,3.492 v 6.6979 h 1.8532 z" />
      <path
         inkscape:connector-curvature="0"
         id="path881-9"
         style="fill:#fdfcfa;fill-rule:evenodd"
         d="m 323.3942,132.4186 h 4.1899 l -2.0467,-12.2088 z m 2.8688,-28.4368 h 3.465 l -4.3835,7.6949 h -1.9824 z m -9.1865,40.6672 v -3.869 h 1.4348 l 4.4156,-22.2249 h -1.9503 v -3.8907 h 9.4443 v 3.8907 h -1.9503 l 4.3512,22.2249 h 1.3218 v 3.869 h -7.0912 v -3.869 h 1.9826 l -0.8865,-5.0294 h -5.3508 l -0.9346,5.0294 h 1.9175 v 3.869 z" />
      <path
         inkscape:connector-curvature="0"
         id="path883-2"
         style="fill:#1b1918;fill-rule:evenodd"
         d="m 323.8086,111.3675 h 1.3563 l 4.0311,-7.0768 h -2.7193 z m 1.7155,0.6182 h -2.6086 l 3.1341,-8.313 h 4.2102 z m -1.7617,20.1237 h 3.4567 l -1.6882,-10.0723 z m 4.1874,0.6182 h -4.9237 l 2.5183,-14.3451 z m -0.5879,11.6123 h 6.4727 v -3.2505 h -1.2672 l -4.4716,-22.8435 h 2.0163 v -3.2726 h -8.8261 v 3.2726 h 2.0176 l -4.5386,22.8435 h -1.379 v 3.2505 h 6.0858 v -3.2505 h -1.9806 l 1.0497,-5.6481 h 5.8669 l 0.9953,5.6481 h -2.0412 z m 7.0909,0.618 h -7.7091 v -4.4865 h 1.9231 l -0.7776,-4.4119 h -4.8348 l -0.819,4.4119 h 1.8546 v 4.4865 h -7.3222 v -4.4865 h 1.4898 l 4.2931,-21.6073 h -1.8829 v -4.509 h 10.0625 v 4.509 h -1.8842 l 4.2307,21.6073 h 1.376 z" />
      <path
         inkscape:connector-curvature="0"
         id="path885-0"
         style="fill:#fdfcfa;fill-rule:evenodd"
         d="M 335.3039,144.6492 V 140.78 h 1.8532 v -22.2249 h -1.8532 v -3.8907 h 14.6659 v 8.5975 h -3.207 v -4.7716 h -5.7056 v 8.1462 h 4.6097 v 4.3209 h -4.6097 v 9.8226 h 1.8698 v 3.8692 z" />
      <path
         inkscape:connector-curvature="0"
         id="path887-2"
         style="fill:#1b1918;fill-rule:evenodd"
         d="m 335.613,144.3401 h 7.0051 v -3.251 h -1.87 v -10.4408 h 4.6097 v -3.7027 h -4.6097 v -8.7644 h 6.3238 v 4.7716 h 2.589 v -7.9793 H 335.613 v 3.2725 h 1.8532 v 22.8431 h -1.8532 z m 7.6231,0.6182 h -8.2413 v -4.4872 h 1.8532 v -21.6069 h -1.8532 v -4.5088 h 15.2841 v 9.2156 h -3.8252 v -4.7716 h -5.0874 v 7.528 h 4.6095 v 4.9391 h -4.6095 v 9.2046 h 1.8698 z" />
      <path
         inkscape:connector-curvature="0"
         id="path889-3"
         style="fill:#fdfcfa;fill-rule:evenodd"
         d="M 351.1785,144.6492 V 140.78 h 1.8532 v -22.2249 h -1.8532 v -3.8907 h 7.6231 v 3.8907 h -1.8698 V 140.78 h 1.8698 v 3.8692 z" />
      <path
         inkscape:connector-curvature="0"
         id="path891-7"
         style="fill:#1b1918;fill-rule:evenodd"
         d="m 351.4875,144.3401 h 7.005 v -3.251 h -1.8698 V 118.246 h 1.8698 v -3.2725 h -7.005 v 3.2725 h 1.8533 v 22.8431 h -1.8533 z m 7.6232,0.6182 h -8.2413 v -4.4872 h 1.8532 v -21.6069 h -1.8532 v -4.5088 h 8.2413 v 4.5088 h -1.87 v 21.6069 h 1.87 z" />
      <path
         inkscape:connector-curvature="0"
         id="path893-5"
         style="fill:#fdfcfa;fill-rule:evenodd"
         d="m 373.1607,134.7401 v 1.2469 c 0,3.0234 -0.5315,5.3273 -1.5955,6.9104 -1.0638,1.5838 -2.6105,2.3751 -4.641,2.3751 -2.0628,0 -3.6262,-0.8204 -4.6902,-2.4611 -1.0631,-1.6405 -1.5954,-4.052 -1.5954,-7.233 v -11.0052 c 0,-3.4673 0.4648,-6.079 1.3939,-7.8347 0.9292,-1.755 2.3183,-2.6328 4.1659,-2.6328 0.7845,0 1.4966,0.1825 2.1358,0.5478 0.6391,0.3654 1.1788,0.9136 1.6195,1.6443 v -1.6338 h 2.8362 v 9.0276 h -3.0617 l -0.0323,-0.7948 c -0.0753,-1.5331 -0.317,-2.6798 -0.7251,-3.4389 -0.4086,-0.7598 -0.9939,-1.1393 -1.7568,-1.1393 -0.9024,0 -1.5688,0.3832 -1.9985,1.1498 -0.4296,0.7665 -0.6448,1.967 -0.6448,3.6001 v 13.2195 c 0,1.6331 0.212,2.8263 0.6368,3.5785 0.4247,0.7523 1.0928,1.1288 2.0065,1.1288 0.8809,0 1.5418,-0.3975 1.9825,-1.1931 0.4402,-0.7955 0.6608,-1.9811 0.6608,-3.5575 v -1.5046 z" />
      <path
         inkscape:connector-curvature="0"
         id="path895-9"
         style="fill:#1b1918;fill-rule:evenodd"
         d="m 366.1985,114.4147 c -1.7401,0 -3.0135,0.8072 -3.8925,2.4682 -0.9013,1.7024 -1.3582,4.2894 -1.3582,7.6906 v 11.0052 c 0,3.1057 0.5199,5.4825 1.5455,7.0643 1.0125,1.5616 2.4615,2.32 4.4303,2.32 1.9393,0 3.3733,-0.7319 4.3853,-2.2383 1.0237,-1.5238 1.543,-3.7906 1.543,-6.7381 v -0.9376 h -2.686 v 1.1954 c 0,1.645 -0.2287,2.8578 -0.699,3.7078 -0.4971,0.897 -1.255,1.3519 -2.2527,1.3519 -1.0286,0 -1.7945,-0.4326 -2.2761,-1.2856 -0.4549,-0.8063 -0.6762,-2.0266 -0.6762,-3.7308 v -13.2189 c 0,-1.7035 0.2238,-2.9307 0.6843,-3.7516 0.4864,-0.8679 1.2499,-1.3079 2.268,-1.3079 0.8815,0 1.564,0.4375 2.0287,1.3018 0.4341,0.8085 0.6833,1.9762 0.7618,3.5704 l 0.0203,0.5015 h 2.456 v -8.4095 h -2.218 v 2.4355 l -0.5743,-0.9513 c -0.4111,-0.6819 -0.918,-1.1988 -1.5076,-1.5356 -0.5891,-0.3369 -1.2562,-0.5074 -1.9826,-0.5074 z m 0.7251,31.1665 c -2.1647,0 -3.8294,-0.8752 -4.9489,-2.6017 -1.0917,-1.684 -1.6451,-4.174 -1.6451,-7.4008 v -11.0052 c 0,-3.5024 0.481,-6.1878 1.4299,-7.9799 0.9828,-1.8563 2.4763,-2.7971 4.439,-2.7971 0.8359,0 1.6055,0.1978 2.2892,0.5891 0.4258,0.2436 0.8129,0.5644 1.1572,0.9599 v -0.9902 h 3.4543 v 9.6457 h -3.6677 l -0.0445,-1.0916 c -0.0722,-1.4774 -0.304,-2.5901 -0.6887,-3.3054 -0.3534,-0.6571 -0.8388,-0.9767 -1.4841,-0.9767 -0.7894,0 -1.3544,0.3246 -1.729,0.9922 -0.4018,0.7159 -0.6053,1.8768 -0.6053,3.4493 v 13.2189 c 0,1.5726 0.201,2.7255 0.5972,3.4271 0.3685,0.6534 0.9366,0.9713 1.7371,0.9713 0.7666,0 1.3266,-0.3382 1.7118,-1.0337 0.4128,-0.7454 0.6218,-1.8916 0.6218,-3.408 v -1.8136 h 3.9222 v 1.5558 c 0,3.0723 -0.5544,5.4554 -1.648,7.0831 -1.1194,1.6666 -2.7676,2.5115 -4.8984,2.5115 z" />
      <path
         inkscape:connector-curvature="0"
         id="path897-2"
         style="fill:#fdfcfa;fill-rule:evenodd"
         d="m 380.5259,132.4186 h 4.1898 l -2.0466,-12.2088 z m -6.3177,12.2304 v -3.869 h 1.4348 l 4.4155,-22.2249 h -1.9502 v -3.8907 h 9.4442 v 3.8907 h -1.9503 l 4.3513,22.2249 h 1.3217 v 3.869 h -7.0909 v -3.869 h 1.9823 l -0.8864,-5.0294 h -5.3508 l -0.9347,5.0294 h 1.9176 v 3.869 z" />
      <path
         inkscape:connector-curvature="0"
         id="path899-2"
         style="fill:#1b1918;fill-rule:evenodd"
         d="m 380.8939,132.1095 h 3.4568 l -1.6883,-10.0717 z m 4.1874,0.6182 h -4.9231 l 2.5179,-14.3457 z m -0.5877,11.6122 h 6.4727 v -3.2508 h -1.2667 l -4.4724,-22.8431 h 2.0166 v -3.2725 h -8.8263 v 3.2725 h 2.0178 l -4.5386,22.8431 h -1.3792 v 3.2508 h 6.0858 v -3.2508 h -1.9799 l 1.0489,-5.6476 h 5.8672 l 0.9951,5.6476 h -2.041 z m 7.0909,0.6182 h -7.7091 v -4.4872 h 1.9231 l -0.7777,-4.4112 h -4.8347 l -0.819,4.4112 h 1.8544 v 4.4872 h -7.3222 v -4.4872 h 1.4898 l 4.2932,-21.6068 h -1.883 v -4.5088 h 10.0625 v 4.5088 h -1.8835 l 4.2301,21.6068 h 1.3761 z" />
      <path
         inkscape:connector-curvature="0"
         id="path901-8"
         style="fill:#fdfcfa;fill-rule:evenodd"
         d="m 404.5873,118.4903 v 22.3324 h 0.7251 c 1.58,0 2.7157,-0.5514 3.4085,-1.6548 0.6936,-1.1027 1.0398,-2.9158 1.0398,-5.4379 v -8.9844 c 0,-2.3503 -0.3091,-3.9805 -0.9266,-4.8903 -0.6182,-0.9099 -1.7167,-1.365 -3.2955,-1.365 z m -5.7533,-3.8258 h 6.1402 c 3.1693,0 5.4096,0.7807 6.7207,2.3428 1.3105,1.5622 1.9659,4.2202 1.9659,7.9743 v 7.9102 c 0,4.1842 -0.6207,7.1897 -1.8613,9.0165 -1.2408,1.8273 -3.2745,2.7409 -6.1,2.7409 h -6.8655 v -3.869 h 1.8532 v -22.2256 h -1.8532 z" />
      <path
         inkscape:connector-curvature="0"
         id="path903-9"
         style="fill:#1b1918;fill-rule:evenodd"
         d="m 404.8964,140.514 h 0.416 c 1.4793,0 2.5085,-0.494 3.1471,-1.5103 0.6583,-1.0484 0.9921,-2.8224 0.9921,-5.2742 v -8.9843 c 0,-2.2755 -0.2937,-3.8623 -0.8728,-4.7166 -0.5546,-0.8153 -1.5776,-1.2288 -3.0402,-1.2288 h -0.6422 z m 0.416,0.6182 h -1.0342 v -22.9507 h 1.2604 c 1.6796,0 2.8744,0.5044 3.5514,1.4996 0.6597,0.9724 0.9798,2.6285 0.9798,5.0641 v 8.9843 c 0,2.6064 -0.3555,4.4385 -1.0867,5.6031 -0.7498,1.1944 -1.985,1.7996 -3.6707,1.7996 z m -6.1693,3.2075 h 6.5564 c 2.7037,0 4.6701,-0.8764 5.844,-2.6049 1.2,-1.7666 1.8082,-4.7418 1.8082,-8.8434 v -7.9094 c 0,-3.6621 -0.6373,-6.2781 -1.8941,-7.7766 -1.2432,-1.4811 -3.4246,-2.2321 -6.4834,-2.2321 h -5.8311 v 3.2726 h 1.8532 v 22.8435 h -1.8532 z m 6.5564,0.6182 h -7.1746 v -4.4867 h 1.8532 v -21.6073 h -1.8532 v -4.5088 h 6.4493 c 3.2498,0 5.5908,0.8258 6.9569,2.4535 1.3531,1.6121 2.0388,4.3618 2.0388,8.1734 v 7.9094 c 0,4.2276 -0.6442,7.3196 -1.9146,9.1909 -1.2963,1.9082 -3.4344,2.8756 -6.3558,2.8756 z" />
      <path
         inkscape:connector-curvature="0"
         id="path905-7"
         style="fill:#fdfcfa;fill-rule:evenodd"
         d="m 424.6038,122.7676 c 0,-1.5472 -0.1967,-2.6759 -0.5892,-3.3856 -0.3926,-0.7091 -1.0182,-1.0639 -1.8774,-1.0639 -0.8598,0 -1.4873,0.3548 -1.8854,1.0639 -0.3974,0.7097 -0.596,1.8384 -0.596,3.3856 v 13.7784 c 0,1.5472 0.1986,2.676 0.596,3.385 0.3981,0.7097 1.0256,1.0638 1.8854,1.0638 0.8592,0 1.4848,-0.3541 1.8774,-1.0638 0.3925,-0.709 0.5892,-1.8378 0.5892,-3.385 z m 3.9321,0.3011 v 13.2195 c 0,2.9517 -0.5434,5.1869 -1.6283,6.7058 -1.0843,1.5189 -2.6748,2.2787 -4.7704,2.2787 -2.0943,0 -3.6873,-0.7598 -4.7777,-2.2787 -1.0905,-1.5189 -1.6358,-3.7541 -1.6358,-6.7058 v -13.2195 c 0,-2.9376 0.5453,-5.1659 1.6358,-6.6848 1.0904,-1.5189 2.6834,-2.2785 4.7777,-2.2785 2.0956,0 3.6861,0.7596 4.7704,2.2785 1.0849,1.5189 1.6283,3.7472 1.6283,6.6848 z" />
      <path
         inkscape:connector-curvature="0"
         id="path907-3"
         style="fill:#1b1918;fill-rule:evenodd"
         d="m 422.1371,118.6273 c -0.7455,0 -1.2741,0.2962 -1.6153,0.9063 -0.369,0.659 -0.557,1.747 -0.557,3.2342 v 13.7776 c 0,1.4874 0.188,2.5754 0.557,3.2344 0.3412,0.6101 0.8698,0.9063 1.6153,0.9063 0.7449,0 1.2704,-0.2956 1.6072,-0.9046 0.3648,-0.6607 0.5502,-1.7487 0.5502,-3.2361 v -13.7776 c 0,-1.4872 -0.1854,-2.5752 -0.5502,-3.2361 -0.3368,-0.6082 -0.8623,-0.9044 -1.6072,-0.9044 z m 0,22.6768 c -0.9755,0 -1.6999,-0.4111 -2.1543,-1.2215 -0.4279,-0.7633 -0.6361,-1.92 -0.6361,-3.5372 v -13.7776 c 0,-1.6165 0.2082,-2.7737 0.6361,-3.5365 0.4544,-0.8109 1.1788,-1.222 2.1543,-1.222 0.976,0 1.6986,0.4116 2.1481,1.2233 0.4223,0.7634 0.6275,1.9199 0.6275,3.5352 v 13.7776 c 0,1.6155 -0.2052,2.772 -0.6275,3.5354 -0.4495,0.8117 -1.1721,1.2233 -2.1481,1.2233 z m 0,-26.8894 c -2.0073,0 -3.4883,0.7028 -4.5269,2.1493 -1.0464,1.4583 -1.5775,3.647 -1.5775,6.5048 v 13.2189 c 0,2.8727 0.5311,5.0684 1.5775,6.526 1.0386,1.4465 2.5191,2.15 4.5269,2.15 2.0084,0 3.487,-0.7035 4.5187,-2.1493 1.0423,-1.4583 1.5715,-3.6547 1.5715,-6.5267 v -13.2189 c 0,-2.8578 -0.5292,-5.0465 -1.5715,-6.5055 -1.0322,-1.4458 -2.5103,-2.1486 -4.5187,-2.1486 z m 0,31.1672 c -2.1902,0 -3.882,-0.8104 -5.0287,-2.4078 -1.1239,-1.5646 -1.6939,-3.8821 -1.6939,-6.8864 v -13.2189 c 0,-2.9899 0.57,-5.3001 1.6939,-6.8652 1.1467,-1.5974 2.8392,-2.4071 5.0287,-2.4071 2.1914,0 3.8807,0.8104 5.022,2.4076 1.1188,1.5658 1.6862,3.876 1.6862,6.8647 v 13.2189 c 0,3.0037 -0.5674,5.3206 -1.6862,6.8857 -1.1406,1.5981 -2.8299,2.4085 -5.022,2.4085 z" />
      <path
         inkscape:connector-curvature="0"
         id="path909-6"
         style="fill:#fdfcfa;fill-rule:evenodd"
         d="M 436.7872,144.6492 V 140.78 h 1.8532 v -22.2249 h -1.8532 v -3.8907 h 14.4558 v 8.4689 h -3.1911 v -4.643 h -5.5115 v 8.1462 h 4.6091 v 4.3209 h -4.6091 v 9.8659 h 5.5115 v -5.3737 h 3.1911 v 9.1996 z" />
      <path
         inkscape:connector-curvature="0"
         id="path911-1"
         style="fill:#1b1918;fill-rule:evenodd"
         d="m 437.0961,144.3401 h 13.8377 v -8.5814 h -2.5728 v 5.3737 h -6.1297 v -10.4841 h 4.609 v -3.7027 h -4.609 v -8.7644 h 6.1297 v 4.643 h 2.5728 v -7.8507 h -13.8377 v 3.2725 h 1.8534 v 22.8431 h -1.8534 z m 14.4558,0.6182 h -15.0738 v -4.4872 h 1.8532 v -21.6069 h -1.8532 v -4.5088 h 15.0738 v 9.087 h -3.8091 v -4.643 h -4.8934 v 7.528 h 4.6092 v 4.9391 h -4.6092 v 9.2478 h 4.8934 v -5.3737 h 3.8091 z" />
      <path
         inkscape:connector-curvature="0"
         id="path913-2"
         style="fill:#fdfcfa;fill-rule:evenodd"
         d="M 452.8389,144.6492 V 140.78 h 1.2412 l 4.6251,-10.7473 -4.6251,-11.4776 h -1.1448 v -3.8907 h 6.7689 v 3.8907 h -1.6918 l 2.7396,6.8995 2.9004,-6.8995 h -1.5793 v -3.8907 h 6.1081 v 3.8907 H 467.15 l -4.6734,10.8545 4.5763,11.3704 h 1.064 v 3.8692 h -6.7368 V 140.78 h 1.7086 l -2.6594,-6.7491 -2.885,6.7491 h 1.5955 v 3.8692 z" />
      <path
         inkscape:connector-curvature="0"
         id="path915-9"
         style="fill:#1b1918;fill-rule:evenodd"
         d="m 461.6893,144.3401 h 6.1181 v -3.251 h -0.9632 l -4.7029,-11.6833 0.0513,-0.1187 4.7543,-11.0411 h 0.9254 v -3.2725 h -5.4899 v 3.2725 h 1.7358 l -3.3746,8.0258 -3.1867,-8.0258 h 1.8385 v -3.2725 h -6.1508 v 3.2725 h 1.0442 l 4.7518,11.7909 -0.0513,0.1181 -4.7056,10.9341 h -1.1355 v 3.251 h 5.6828 v -3.251 h -1.7551 l 3.3648,-7.8723 3.102,7.8723 h -1.8534 z m 6.7361,0.6182 h -7.3543 v -4.4872 h 1.5634 l -2.2166,-5.6266 -2.4047,5.6266 h 1.436 v 4.4872 H 452.53 v -4.4872 h 1.3465 l 4.494,-10.4422 -4.4991,-11.1647 h -1.245 v -4.5088 h 7.3871 v 4.5088 h -1.5461 l 2.2929,5.7731 2.4269,-5.7731 h -1.423 v -4.5088 h 6.7263 v 4.5088 h -1.1369 l -4.5423,10.5496 4.4508,11.0573 h 1.1633 z" />
      <path
         inkscape:connector-curvature="0"
         id="path917-3"
         style="fill:#fdfcfa;fill-rule:evenodd"
         d="m 477.4157,103.9816 h 3.4648 l -4.3834,7.695 h -1.9825 z m -8.0577,40.6678 v -3.8691 h 1.8532 v -22.2255 h -1.8532 v -3.8908 h 14.4558 v 8.469 h -3.1916 v -4.6425 h -5.5116 v 8.1461 h 4.6097 v 4.3205 h -4.6097 v 9.8658 h 5.5116 v -5.3737 h 3.1916 v 9.2002 z" />
      <path
         inkscape:connector-curvature="0"
         id="path919-1"
         style="fill:#1b1918;fill-rule:evenodd"
         d="m 474.9613,111.3675 h 1.3555 l 4.0324,-7.0768 h -2.7201 z m 1.7153,0.6182 h -2.6086 l 3.1341,-8.313 h 4.2109 z m -7.0093,32.3542 h 13.8369 v -8.5814 h -2.5727 v 5.3737 h -6.1299 v -10.4841 h 4.6091 v -3.7022 h -4.6091 v -8.7649 h 6.1299 v 4.643 h 2.5727 v -7.8507 h -13.8369 v 3.2726 h 1.8532 v 22.8435 h -1.8532 z m 14.4551,0.618 h -15.0733 v -4.4865 h 1.8532 v -21.6073 h -1.8532 v -4.509 h 15.0733 v 9.087 h -3.8091 v -4.643 h -4.8935 v 7.5286 h 4.6091 v 4.9386 h -4.6091 v 9.2477 h 4.8935 v -5.3737 h 3.8091 z" />
      <path
         inkscape:connector-curvature="0"
         id="path921-9"
         style="fill:#fdfcfa;fill-rule:evenodd"
         d="m 491.6142,127.0882 h 2.2081 c 0.9564,0 1.6519,-0.2436 2.0869,-0.7307 0.4353,-0.4871 0.6528,-1.2753 0.6528,-2.3645 v -2.5795 c 0,-1.1029 -0.2094,-1.8662 -0.6286,-2.2891 -0.4186,-0.4222 -1.2141,-0.6343 -2.3848,-0.6343 h -1.9344 z m -5.7532,17.5608 v -3.869 h 1.8532 v -22.2249 h -1.8532 v -3.8907 h 7.9613 c 2.4171,0 4.1096,0.5087 5.0763,1.5262 0.9675,1.0176 1.4509,2.7583 1.4509,5.2229 v 1.9774 c 0,1.8199 -0.2849,3.1564 -0.8542,4.0089 -0.57,0.853 -1.5473,1.4081 -2.9333,1.6659 1.4181,0.2435 2.4041,0.7133 2.9573,1.4083 0.5534,0.6947 0.8302,1.7945 0.8302,3.299 v 7.007 h 1.8532 v 3.869 h -5.6407 v -10.6608 c 0,-1.2326 -0.204,-2.0672 -0.6119,-2.5042 -0.4087,-0.437 -1.1986,-0.6559 -2.3695,-0.6559 h -1.9664 v 9.9519 h 1.7402 v 3.869 z" />
      <path
         inkscape:connector-curvature="0"
         id="path923-4"
         style="fill:#1b1918;fill-rule:evenodd"
         d="m 491.9233,126.7791 h 1.899 c 0.8598,0 1.4849,-0.2113 1.8563,-0.6275 0.3808,-0.4265 0.5744,-1.1528 0.5744,-2.1586 v -2.5795 c 0,-1.0132 -0.1811,-1.7104 -0.5391,-2.0716 -0.3566,-0.3597 -1.0854,-0.5427 -2.1653,-0.5427 h -1.6253 z m 1.899,0.6182 h -2.5172 v -9.2163 h 2.2435 c 1.2684,0 2.1208,0.2375 2.6049,0.7258 0.4828,0.4877 0.7176,1.3074 0.7176,2.5067 v 2.5795 c 0,1.1789 -0.2392,2.0197 -0.7313,2.5704 -0.4944,0.5532 -1.274,0.8339 -2.3175,0.8339 z m 3.0488,16.9426 h 5.0227 v -3.2508 h -1.8534 v -7.3161 c 0,-1.4255 -0.2565,-2.4707 -0.7635,-3.1068 -0.5018,-0.6307 -1.4328,-1.0665 -2.7673,-1.2963 l -1.7018,-0.2925 1.6974,-0.3158 c 1.2944,-0.2406 2.2136,-0.7566 2.7328,-1.5337 0.5324,-0.7968 0.8024,-2.0875 0.8024,-3.837 v -1.9774 c 0,-2.3707 -0.4593,-4.0564 -1.3655,-5.0103 -0.9019,-0.9489 -2.5351,-1.4297 -4.8526,-1.4297 h -7.6522 v 3.2725 h 1.8532 v 22.8431 h -1.8532 v 3.2508 h 6.8752 v -3.2508 h -1.7402 V 130.519 h 2.2755 c 1.2717,0 2.121,0.2467 2.5952,0.7542 0.4678,0.5008 0.6953,1.389 0.6953,2.715 z m 5.6407,0.6182 h -6.2588 v -10.9699 c 0,-1.4274 -0.288,-2.035 -0.5291,-2.2934 -0.3456,-0.3698 -1.067,-0.5576 -2.1433,-0.5576 h -1.6573 v 9.3337 h 1.7402 v 4.4872 h -8.1116 v -4.4872 h 1.8532 v -21.6068 h -1.8532 v -4.5088 h 8.2704 c 2.4936,0 4.2771,0.5458 5.3003,1.6221 1.0193,1.0724 1.536,2.9016 1.536,5.4361 v 1.9774 c 0,1.8996 -0.2966,3.2676 -0.9063,4.1808 -0.4357,0.6515 -1.0916,1.1454 -1.9571,1.4742 0.8809,0.2863 1.5394,0.6998 1.9659,1.2351 0.5958,0.7486 0.8975,1.9232 0.8975,3.492 v 6.6979 h 1.8532 z" />
      <path
         inkscape:connector-curvature="0"
         id="path925-7"
         style="fill:#fdfcfa;fill-rule:evenodd"
         d="m 515.9013,134.7401 v 1.2469 c 0,3.0234 -0.5316,5.3273 -1.5954,6.9104 -1.064,1.5838 -2.6112,2.3751 -4.6413,2.3751 -2.0633,0 -3.6261,-0.8204 -4.6899,-2.4611 -1.0633,-1.6405 -1.5955,-4.052 -1.5955,-7.233 v -11.0052 c 0,-3.4673 0.4649,-6.079 1.3939,-7.8347 0.9291,-1.755 2.3181,-2.6328 4.1659,-2.6328 0.7843,0 1.4959,0.1825 2.1357,0.5478 0.6392,0.3654 1.1795,0.9136 1.6202,1.6443 v -1.6338 h 2.8355 v 9.0276 h -3.0618 l -0.032,-0.7948 c -0.0756,-1.5331 -0.3172,-2.6798 -0.7251,-3.4389 -0.4087,-0.7598 -0.9941,-1.1393 -1.7569,-1.1393 -0.9026,0 -1.569,0.3832 -1.9986,1.1498 -0.4295,0.7665 -0.6447,1.967 -0.6447,3.6001 v 13.2195 c 0,1.6331 0.2121,2.8263 0.6368,3.5785 0.4241,0.7523 1.0929,1.1288 2.0065,1.1288 0.8809,0 1.5417,-0.3975 1.9824,-1.1931 0.4402,-0.7955 0.6602,-1.9811 0.6602,-3.5575 v -1.5046 z" />
      <path
         inkscape:connector-curvature="0"
         id="path927-8"
         style="fill:#1b1918;fill-rule:evenodd"
         d="m 508.9392,114.4147 c -1.7402,0 -3.0136,0.8072 -3.8927,2.4682 -0.9012,1.7031 -1.358,4.2901 -1.358,7.6906 v 11.0052 c 0,3.1057 0.5204,5.4825 1.546,7.0643 1.012,1.5616 2.4609,2.32 4.4303,2.32 1.9386,0 3.3728,-0.7319 4.3847,-2.2383 1.0237,-1.5238 1.5429,-3.7906 1.5429,-6.7381 v -0.9376 h -2.6859 v 1.1954 c 0,1.645 -0.2286,2.8573 -0.6991,3.7078 -0.4977,0.897 -1.2548,1.3519 -2.2526,1.3519 -1.0286,0 -1.7952,-0.4326 -2.276,-1.2856 -0.4551,-0.8068 -0.6764,-2.0266 -0.6764,-3.7308 v -13.2189 c 0,-1.7035 0.2238,-2.9307 0.6843,-3.7516 0.4866,-0.8679 1.2488,-1.3079 2.2681,-1.3079 0.8809,0 1.5639,0.4375 2.0288,1.3018 0.4346,0.8092 0.6837,1.9769 0.761,3.5704 l 0.0203,0.5015 h 2.4566 v -8.4095 h -2.2179 v 2.4355 l -0.5737,-0.9513 c -0.4111,-0.6819 -0.9185,-1.1981 -1.5084,-1.5356 -0.5891,-0.3369 -1.256,-0.5074 -1.9823,-0.5074 z m 0.7256,31.1665 c -2.1648,0 -3.8301,-0.8752 -4.9497,-2.6017 -1.0916,-1.684 -1.6448,-4.174 -1.6448,-7.4008 v -11.0052 c 0,-3.5019 0.481,-6.1873 1.4291,-7.9799 0.9829,-1.8563 2.4764,-2.7971 4.4398,-2.7971 0.8351,0 1.6053,0.1978 2.289,0.5891 0.4265,0.2436 0.8136,0.5649 1.1572,0.9599 v -0.9902 h 3.4543 v 9.6457 h -3.6676 l -0.0452,-1.0916 c -0.0716,-1.4761 -0.3035,-2.5895 -0.6879,-3.3054 -0.3536,-0.6571 -0.8388,-0.9767 -1.4842,-0.9767 -0.7894,0 -1.355,0.3246 -1.7284,0.9916 -0.4024,0.7171 -0.6058,1.8774 -0.6058,3.4499 v 13.2189 c 0,1.5726 0.2003,2.7255 0.5965,3.4271 0.369,0.6534 0.9371,0.9713 1.7377,0.9713 0.7665,0 1.3265,-0.3382 1.7116,-1.0337 0.4124,-0.7454 0.6219,-1.8921 0.6219,-3.408 v -1.8136 h 3.9223 v 1.5558 c 0,3.0723 -0.5551,5.4554 -1.648,7.0831 -1.1195,1.6666 -2.7675,2.5115 -4.8978,2.5115 z" />
      <path
         inkscape:connector-curvature="0"
         id="path929-4"
         style="fill:#fdfcfa;fill-rule:evenodd"
         d="M 517.4486,144.6492 V 140.78 h 1.8532 v -22.2249 h -1.8532 v -3.8907 h 7.6226 v 3.8907 h -1.8693 V 140.78 h 1.8693 v 3.8692 z" />
      <path
         inkscape:connector-curvature="0"
         id="path931-5"
         style="fill:#1b1918;fill-rule:evenodd"
         d="m 517.7577,144.3401 h 7.0044 v -3.251 h -1.8693 V 118.246 h 1.8693 v -3.2725 h -7.0044 v 3.2725 h 1.8532 v 22.8431 h -1.8532 z m 7.6226,0.6182 h -8.2408 v -4.4872 h 1.8532 v -21.6069 h -1.8532 v -4.5088 h 8.2408 v 4.5088 h -1.8693 v 21.6069 h 1.8693 z" />
      <path
         inkscape:connector-curvature="0"
         id="path933-0"
         style="fill:#fdfcfa;fill-rule:evenodd"
         d="M 529.7293,144.6492 V 140.78 h 2.2073 v -22.3756 h -2.5462 v 5.03 h -2.6747 v -8.77 h 14.3592 v 8.77 h -2.7074 v -5.03 h -2.5469 V 140.78 h 2.2569 v 3.8692 z" />
      <path
         inkscape:connector-curvature="0"
         id="path935-3"
         style="fill:#1b1918;fill-rule:evenodd"
         d="m 530.0382,144.3401 h 7.7302 v -3.251 h -2.2569 v -22.9938 h 3.1651 v 5.03 h 2.0892 v -8.1518 h -13.741 v 8.1518 h 2.0565 v -5.03 h 3.1644 v 22.9938 h -2.2075 z m 8.3484,0.6182 h -8.9664 v -4.4872 h 2.2073 v -21.7577 h -1.928 v 5.0301 h -3.2929 v -9.3881 h 14.9774 v 9.3881 h -3.3256 v -5.0301 h -1.9287 v 21.7577 h 2.2569 z" />
      <path
         inkscape:connector-curvature="0"
         id="path937-6"
         style="fill:#fdfcfa;fill-rule:evenodd"
         d="m 551.7924,122.7676 c 0,-1.5472 -0.1959,-2.6759 -0.5886,-3.3856 -0.3925,-0.7091 -1.0181,-1.0639 -1.8772,-1.0639 -0.86,0 -1.488,0.3548 -1.8855,1.0639 -0.3981,0.7097 -0.5964,1.8384 -0.5964,3.3856 v 13.7784 c 0,1.5472 0.1983,2.676 0.5964,3.385 0.3975,0.7097 1.0255,1.0638 1.8855,1.0638 0.8591,0 1.4847,-0.3541 1.8772,-1.0638 0.3927,-0.709 0.5886,-1.8378 0.5886,-3.385 z m 3.9321,0.3011 v 13.2195 c 0,2.9517 -0.5427,5.1869 -1.6277,6.7058 -1.0848,1.5189 -2.6754,2.2787 -4.7702,2.2787 -2.095,0 -3.688,-0.7598 -4.7785,-2.2787 -1.0904,-1.5189 -1.6357,-3.7541 -1.6357,-6.7058 v -13.2195 c 0,-2.9376 0.5453,-5.1659 1.6357,-6.6848 1.0905,-1.5189 2.6835,-2.2785 4.7785,-2.2785 2.0948,0 3.6854,0.7596 4.7702,2.2785 1.085,1.5189 1.6277,3.7472 1.6277,6.6848 z" />
      <path
         inkscape:connector-curvature="0"
         id="path939-1"
         style="fill:#1b1918;fill-rule:evenodd"
         d="m 549.3264,118.6273 c -0.7456,0 -1.2748,0.2962 -1.6154,0.9058 -0.3703,0.6595 -0.5576,1.7475 -0.5576,3.2347 v 13.7776 c 0,1.4874 0.1873,2.5754 0.5576,3.2344 0.3406,0.6101 0.8698,0.9063 1.6154,0.9063 0.7442,0 1.2702,-0.2956 1.6072,-0.9046 0.3641,-0.6595 0.5495,-1.748 0.5495,-3.2361 v -13.7776 c 0,-1.4872 -0.1854,-2.5764 -0.5495,-3.2361 -0.337,-0.6082 -0.863,-0.9044 -1.6072,-0.9044 z m 0,22.6768 c -0.9755,0 -1.7013,-0.4111 -2.1549,-1.222 -0.4279,-0.7628 -0.6361,-1.9195 -0.6361,-3.5367 v -13.7776 c 0,-1.6165 0.2082,-2.7737 0.6361,-3.5365 0.4536,-0.8109 1.1794,-1.222 2.1549,-1.222 0.976,0 1.6987,0.4116 2.1481,1.2233 0.4215,0.7627 0.6268,1.9194 0.6268,3.5352 v 13.7776 c 0,1.616 -0.2053,2.7727 -0.6268,3.5354 -0.4494,0.8117 -1.1721,1.2233 -2.1481,1.2233 z m 0,-26.8894 c -2.0079,0 -3.4889,0.7028 -4.5268,2.1493 -1.0479,1.4583 -1.5783,3.647 -1.5783,6.5048 v 13.2189 c 0,2.8727 0.5304,5.0684 1.5783,6.526 1.0379,1.4465 2.5189,2.15 4.5268,2.15 2.0078,0 3.4864,-0.7035 4.5188,-2.1493 1.0421,-1.4583 1.5707,-3.654 1.5707,-6.5267 v -13.2189 c 0,-2.8578 -0.5286,-5.0465 -1.5707,-6.5055 -1.033,-1.4458 -2.511,-2.1486 -4.5188,-2.1486 z m 0,31.1672 c -2.1909,0 -3.8827,-0.8104 -5.0294,-2.4078 -1.1239,-1.5646 -1.6939,-3.8814 -1.6939,-6.8864 v -13.2189 c 0,-2.9899 0.57,-5.3001 1.6939,-6.8652 1.1472,-1.5974 2.8392,-2.4071 5.0294,-2.4071 2.1907,0 3.8801,0.8104 5.0219,2.4076 1.1183,1.5653 1.6857,3.8753 1.6857,6.8647 v 13.2189 c 0,3.0043 -0.5674,5.3213 -1.6857,6.8857 -1.1418,1.5981 -2.8307,2.4085 -5.0219,2.4085 z" />
    </g>
    <text
       xml:space="preserve"
       style="font-style:normal;font-variant:normal;font-weight:normal;font-stretch:normal;font-size:9.53373432px;line-height:1.25;font-family:sans-serif;-inkscape-font-specification:sans-serif;text-align:center;letter-spacing:0px;word-spacing:0px;text-anchor:middle;fill:#000000;fill-opacity:1;stroke:none;stroke-width:0.23834336"
       x="115.74948"
       y="-6.577662"
       id="text1307"
       inkscape:export-xdpi="147"
       inkscape:export-ydpi="147"><tspan
         sodipodi:role="line"
         x="115.74948"
         y="1.8574586"
         style="text-align:center;text-anchor:middle;stroke-width:0.23834336"
         id="tspan125" /><tspan
         sodipodi:role="line"
         x="115.74948"
         y="13.774627"
         style="font-style:normal;font-variant:normal;font-weight:normal;font-stretch:normal;font-size:8.89815235px;font-family:Arial;-inkscape-font-specification:Arial;text-align:center;text-anchor:middle;stroke-width:0.23834336"
         id="tspan123">GRÁFICA DO EXÉRCITO</tspan><tspan
         sodipodi:role="line"
         x="115.74948"
         y="25.691795"
         style="text-align:center;text-anchor:middle;stroke-width:0.23834336"
         id="tspan127" /><tspan
         sodipodi:role="line"
         x="115.74948"
         y="37.608963"
         style="text-align:center;text-anchor:middle;stroke-width:0.23834336"
         id="tspan1309" /></text>
    <text
       xml:space="preserve"
       style="font-style:normal;font-variant:normal;font-weight:normal;font-stretch:normal;font-size:5.64444447px;line-height:1.25;font-family:Arial;-inkscape-font-specification:'Arial, Normal';font-variant-ligatures:normal;font-variant-caps:normal;font-variant-numeric:normal;font-feature-settings:normal;text-align:end;letter-spacing:0px;word-spacing:0px;writing-mode:lr-tb;text-anchor:end;fill:#000000;fill-opacity:1;stroke:none;stroke-width:0.26458332"
       x="207.61476"
       y="33.008904"
       id="text961"
       inkscape:export-xdpi="147"
       inkscape:export-ydpi="147"><tspan
         sodipodi:role="line"
         id="tspan959"
         x="207.61476"
         y="33.008904"
         style="text-align:end;text-anchor:end;stroke-width:0.26458332">QGEx - SETOR DE GARAGENS - SMU</tspan><tspan
         sodipodi:role="line"
         x="207.61476"
         y="40.064461"
         style="text-align:end;text-anchor:end;stroke-width:0.26458332"
         id="tspan963">CEP: 70.630-901 - BRASÍLIA - DF</tspan><tspan
         sodipodi:role="line"
         x="207.61476"
         y="47.120014"
         style="text-align:end;text-anchor:end;stroke-width:0.26458332"
         id="tspan965">EMAIL: divcmcl@graficadoexercito.eb.mil.br</tspan><tspan
         sodipodi:role="line"
         x="207.61476"
         y="54.175571"
         style="text-align:end;text-anchor:end;stroke-width:0.26458332"
         id="tspan967">TELEFONE: 3415-5815 OU 3415-4367</tspan></text>
  </g>
</svg>
